<svg xmlns="http://www.w3.org/2000/svg" viewBox="0 0 26.19 31.43"><defs><style>.cls-1{fill:#fff;}</style></defs><title>验证码</title><g id="图层_2" data-name="图层 2"><g id="图层_1-2" data-name="图层 1"><path class="cls-1" d="M22.26,13H6.86C7.12,11,5.2,3,12.3,2.8,19,2.58,18,10.1,18,10.1l3.31,0S22.26.05,12.3,0C1.43.49,4,11.4,3.65,13h.28A3.72,3.72,0,0,0,0,16.42V28a3.72,3.72,0,0,0,3.93,3.47H22.26A3.72,3.72,0,0,0,26.19,28V16.42A3.72,3.72,0,0,0,22.26,13ZM14.4,23v2.63a1.24,1.24,0,0,1-1.31,1.15,1.24,1.24,0,0,1-1.31-1.15V23a2.28,2.28,0,0,1-1.3-2,2.48,2.48,0,0,1,2.62-2.31A2.48,2.48,0,0,1,15.71,21a2.27,2.27,0,0,1-1.31,2Z"/></g></g></svg>