<svg xmlns="http://www.w3.org/2000/svg" xmlns:xlink="http://www.w3.org/1999/xlink" viewBox="0 0 20.49 31.53"><defs><style>.cls-1{fill:none;}.cls-2{clip-path:url(#clip-path);}.cls-3{fill:#fff;}</style><clipPath id="clip-path" transform="translate(0 0)"><rect class="cls-1" width="20.5" height="31.58"/></clipPath></defs><title>手机</title><g id="图层_2" data-name="图层 2"><g id="图层_1-2" data-name="图层 1"><g class="cls-2"><path class="cls-3" d="M20.49,15.81c0,4.13,0,8.27,0,12.41,0,2.13-1.22,3.31-3.44,3.31H3.42A3.08,3.08,0,0,1,0,28.33Q0,15.78,0,3.23A3.09,3.09,0,0,1,3.41,0H17.12A3,3,0,0,1,20.49,3.3c0,4.17,0,8.34,0,12.51ZM18.35,13.9c0-2.89,0-5.77,0-8.66,0-.78-.2-1.11-1.08-1.1-4.63,0-9.26,0-13.9,0-.82,0-1.15.23-1.14,1.06,0,5.8,0,11.61,0,17.41,0,.72.23,1,1,1q7,0,14.08,0c.85,0,1-.3,1-1.05,0-2.88,0-5.77,0-8.65Zm-8,15.45a1.85,1.85,0,0,0,1.89-1.89,2,2,0,0,0-1.93-1.8A1.89,1.89,0,0,0,8.4,27.55a1.74,1.74,0,0,0,1.93,1.8Zm0-26.86h3.23c.3,0,.67,0,.67-.41s-.31-.4-.6-.4H7c-.29,0-.59.06-.59.42s.32.39.6.39Z" transform="translate(0 0)"/></g></g></g></svg>