<svg xmlns="http://www.w3.org/2000/svg" viewBox="0 0 186.87 186.87"><defs><style>.cls-1{fill:#fff;}</style></defs><title>签</title><g id="图层_2" data-name="图层 2"><g id="图层_1-2" data-name="图层 1"><path class="cls-1" d="M115.54,94.06a103.83,103.83,0,0,0-10.62-.53H81.79a78.39,78.39,0,0,0-10.61.53V88.91a175,175,0,0,1-22.4,10.3,20,20,0,0,0-4.1-6.1,115.25,115.25,0,0,0,24.39-9.88A81.39,81.39,0,0,0,90.42,66.51l5.78,2.42L94.94,70.4a150.82,150.82,0,0,0,26.28,14.83c6.41,2.83,11.14,4.31,20.4,6.83a28.27,28.27,0,0,0-4.11,6.52c-10.93-3.89-15.34-5.78-22-9.15ZM63,59.68A79.89,79.89,0,0,1,51.31,75.13a20,20,0,0,0-5.16-4.31A56.47,56.47,0,0,0,63.29,43.17l6.94,1.68A92.57,92.57,0,0,1,66,54H81.37a62.34,62.34,0,0,0,10.41-.63V60.1a84,84,0,0,0-10-.42H75.91A103.1,103.1,0,0,1,80.64,70.3l-6.1,2A76.76,76.76,0,0,0,69.7,59.68Zm65.07,68.76a77.76,77.76,0,0,0,11.25-.64v7.57a87,87,0,0,0-11.46-.63H58.14a92.47,92.47,0,0,0-11.57.63V127.8a76.12,76.12,0,0,0,11.46.64h42.79c8.1-8.73,13-16.51,18.61-29.13l7,3.26c-7.57,13.25-11,18.61-17.14,25.87Zm-56.56-4c-4.41-9.36-6.1-12.2-11.56-19.45l5.88-3c5.26,6.73,7.68,10.73,12,19.24Zm33.43-36.8c2.74,0,4.21,0,6.73-.21A145.07,145.07,0,0,1,91.36,74.5,117.45,117.45,0,0,1,73.8,87.43h.85c1.78.11,4.31.21,7.14.21ZM93,120.66c-3.89-11-4.83-13.25-9.35-20.82L90,97.42A104.84,104.84,0,0,1,99.46,118Zm8.73-61.09a48.66,48.66,0,0,1-5.15,7.68,23.07,23.07,0,0,0-5.57-3.47c3.68-4.21,4.83-5.89,6.51-9.46a63.89,63.89,0,0,0,4-11.15l6.52,1.58c-1.68,4.63-2,5.36-3.58,9.15h24.18a76.11,76.11,0,0,0,11-.63V60.1a106.46,106.46,0,0,0-11-.53H117.43a68.21,68.21,0,0,1,6.31,11.57l-5.89,2.52A75.24,75.24,0,0,0,111,59.57Z"/><path class="cls-1" d="M173.41,63.91a85.24,85.24,0,1,1-80-55.69A85,85,0,0,1,155.85,35.5,4.79,4.79,0,0,0,159.58,34a6.51,6.51,0,0,0,1.5-4.48A91.69,91.69,0,0,0,93.43,0a93.9,93.9,0,1,0,87.46,60.92c-1.87-1.12-5.24-1.5-7.48,3Z"/><path class="cls-1" d="M161.83,47.09A7.46,7.46,0,1,0,164,41.8a7.55,7.55,0,0,0-2.19,5.29Z"/></g></g></svg>