<svg xmlns="http://www.w3.org/2000/svg" viewBox="0 0 186.87 186.87"><defs><style>.cls-1{fill:#fff;}</style></defs><title>领礼物</title><g id="图层_2" data-name="图层 2"><g id="图层_1-2" data-name="图层 1"><path class="cls-1" d="M71.81,50.22c3.89,3.68,3.89,3.68,9.88,10,5.36,5.68,6.1,6.42,9.36,10.83l-4.84,4.21c-5.57-7.68-7.57-10.1-16.93-20-7,10.73-13.77,18.19-22.6,25.13a17.14,17.14,0,0,0-3.47-5.68c7.67-6,9.67-8,14.19-13.66s6-8.21,10.1-16.93l5.78,2.63ZM89.26,91.85A33.57,33.57,0,0,0,86.74,97a155,155,0,0,1-15.46,25.44c2.21,3.16,3.15,4.63,7.78,11.46l-5.36,4.63c-6.83-12.3-12-19.45-20.61-28.91l4.73-4.1c4.42,5,5.89,6.83,9.68,11.67a106,106,0,0,0,13-22.5H55.41a41.38,41.38,0,0,0-8.1.63V88.38a43.14,43.14,0,0,0,8.2.53H76.64A44.87,44.87,0,0,0,85,88.48Zm-24-25.13a98.36,98.36,0,0,1,12.09,14l-4.94,4.53A62,62,0,0,0,60.87,70.82ZM118.7,77.87a59.53,59.53,0,0,0-.63,9.56V101c0,6.62-.22,8.93-.95,12.61-1.47,6.83-5.26,12.2-11.78,16.82-4.94,3.47-8.83,5.36-17.34,8.62a16.62,16.62,0,0,0-4.52-6c11.46-3.26,17.13-6.1,22-10.93,4.41-4.42,6.1-10.1,6.1-21.13V87.33a57.25,57.25,0,0,0-.63-9.46Zm-19-24.39a71.91,71.91,0,0,0-9.89.42V47.17a52.73,52.73,0,0,0,10.1.63h30.91a55,55,0,0,0,10-.63V54a64.49,64.49,0,0,0-9.67-.52H119.54c-1.16,3.67-1.69,4.94-4.52,11.88h11c5,0,7.36-.11,10.31-.32a42.47,42.47,0,0,0-.42,7.36v32.17a74.82,74.82,0,0,0,.63,10.62H129a74.82,74.82,0,0,0,.63-10.62V70.93H100.19v33.64a74.22,74.22,0,0,0,.63,10.51H93.46a74.22,74.22,0,0,0,.63-10.51V72.93A53.08,53.08,0,0,0,93.67,65c3,.21,5.26.32,9.78.32h4.73a61.41,61.41,0,0,0,4.31-11.88Zm21.76,65a135.16,135.16,0,0,1,20.5,14.82l-4,5.68a103.66,103.66,0,0,0-20.3-15.77Z"/><path class="cls-1" d="M173.41,63.91a85.24,85.24,0,1,1-80-55.69A85,85,0,0,1,155.85,35.5,4.79,4.79,0,0,0,159.58,34a6.51,6.51,0,0,0,1.5-4.48A91.69,91.69,0,0,0,93.43,0a93.9,93.9,0,1,0,87.46,60.92c-1.87-1.12-5.24-1.5-7.48,3Z"/><path class="cls-1" d="M161.83,47.09A7.46,7.46,0,1,0,164,41.8a7.55,7.55,0,0,0-2.19,5.29Z"/></g></g></svg>