<svg xmlns="http://www.w3.org/2000/svg" viewBox="0 0 186.87 186.87"><defs><style>.cls-1{fill:#fff;}</style></defs><title>二维码无效</title><g id="图层_2" data-name="图层 2"><g id="图层_1-2" data-name="图层 1"><path class="cls-1" d="M173.41,63.91a85.24,85.24,0,1,1-80-55.69A85,85,0,0,1,155.85,35.5,4.79,4.79,0,0,0,159.58,34a6.51,6.51,0,0,0,1.5-4.48A91.69,91.69,0,0,0,93.43,0a93.9,93.9,0,1,0,87.46,60.92c-1.87-1.12-5.24-1.5-7.48,3Z"/><path class="cls-1" d="M168.29,51.52l1.36-40a.73.73,0,0,0-1.08-.67L133.26,29.67a.74.74,0,0,0,0,1.27l34,21.17A.73.73,0,0,0,168.29,51.52Z"/><path class="cls-1" d="M102.25,93.53l28.59-28.59a5.52,5.52,0,0,0-7.8-7.8L94.45,85.74,65.87,57.11a5.52,5.52,0,1,0-7.8,7.8L86.66,93.53,58,122.12a5.51,5.51,0,0,0,7.79,7.8l28.6-28.59L123,129.92a5.51,5.51,0,0,0,7.79-7.8Z"/></g></g></svg>