<svg xmlns="http://www.w3.org/2000/svg" viewBox="0 0 186.87 186.87"><defs><style>.cls-1{fill:#fff;}</style></defs><title>活动已结束</title><g id="图层_2" data-name="图层 2"><g id="图层_1-2" data-name="图层 1"><path class="cls-1" d="M173.41,63.91a85.24,85.24,0,1,1-80-55.69A85,85,0,0,1,155.85,35.5,4.79,4.79,0,0,0,159.58,34a6.51,6.51,0,0,0,1.5-4.48A91.69,91.69,0,0,0,93.43,0a93.9,93.9,0,1,0,87.46,60.92c-1.87-1.12-5.24-1.5-7.48,3Z"/><rect class="cls-1" x="29.43" y="87.76" width="127" height="10" rx="5"/><path class="cls-1" d="M160.83,46.09A7.46,7.46,0,1,0,163,40.8a7.55,7.55,0,0,0-2.19,5.29Z"/></g></g></svg>