<svg xmlns="http://www.w3.org/2000/svg" viewBox="0 0 186.87 186.87"><defs><style>.cls-1{fill:#fff;}</style></defs><title>成功01</title><g id="图层_2" data-name="图层 2"><g id="图层_1-2" data-name="图层 1"><path class="cls-1" d="M173.41,63.91a85.24,85.24,0,1,1-80-55.69A85,85,0,0,1,155.85,35.5,4.79,4.79,0,0,0,159.58,34a6.51,6.51,0,0,0,1.5-4.48A91.69,91.69,0,0,0,93.43,0a93.9,93.9,0,1,0,87.46,60.92c-1.87-1.12-5.24-1.5-7.48,3Z"/><path class="cls-1" d="M161.83,47.09A7.46,7.46,0,1,0,164,41.8a7.55,7.55,0,0,0-2.19,5.29Z"/><path class="cls-1" d="M149.09,55.61a6,6,0,0,0-8.5.26l-65.3,66.22L44.48,92A6,6,0,1,0,36,100.51L71.23,135l.06,0s0,0,0,.07a6.66,6.66,0,0,0,1.29.81,3.87,3.87,0,0,0,.64.41,6.14,6.14,0,0,0,2.2.42,5.67,5.67,0,0,0,2.3-.47,4.61,4.61,0,0,0,.67-.45,6,6,0,0,0,1.3-.87s0,0,0-.07l.07,0,69.53-70.7a6.05,6.05,0,0,0-.28-8.55Z"/></g></g></svg>