<svg xmlns="http://www.w3.org/2000/svg" viewBox="0 0 186.87 186.87"><defs><style>.cls-1{fill:#fff;}</style></defs><title>网络异常</title><g id="图层_2" data-name="图层 2"><g id="图层_1-2" data-name="图层 1"><path class="cls-1" d="M173.41,63.91a85.24,85.24,0,1,1-80-55.69A85,85,0,0,1,155.85,35.5,4.79,4.79,0,0,0,159.58,34a6.51,6.51,0,0,0,1.5-4.48A91.69,91.69,0,0,0,93.43,0a93.9,93.9,0,1,0,87.46,60.92c-1.87-1.12-5.24-1.5-7.48,3Z"/><path class="cls-1" d="M160.83,46.09A7.46,7.46,0,1,0,163,40.8a7.55,7.55,0,0,0-2.19,5.29Z"/><path class="cls-1" d="M116.89,100.12a2.64,2.64,0,0,0,.82-5.22L98.91,92l-1,5.18Z"/><path class="cls-1" d="M149.17,115.82l4.05-26.08a7.91,7.91,0,0,0-6.61-9l-31.29-4.87a7.91,7.91,0,0,0-9,6.6l-.82,5.22,5.21.81.82-5.22a2.63,2.63,0,0,1,3-2.19l31.29,4.86a2.64,2.64,0,0,1,2.2,3L144,115a2.64,2.64,0,0,1-3,2.19l-31.3-4.86a2.66,2.66,0,0,1-2.2-3l.82-5.21-5.23-.81-.8,5.21a7.9,7.9,0,0,0,6.61,9l31.28,4.87a7.91,7.91,0,0,0,9-6.6Z"/><path class="cls-1" d="M75.09,95a2.64,2.64,0,0,0,.85,5.21l18.77-3.07-.65-5.24L75.1,95Z"/><path class="cls-1" d="M90.67,108.46l-.86-5.21-5.2.86.85,5.21a2.63,2.63,0,0,1-2.18,3L52,117.45a2.65,2.65,0,0,1-3-2.18l-4.25-26a2.64,2.64,0,0,1,2.18-3l31.25-5.1a2.64,2.64,0,0,1,3,2.18l.86,5.21,5.21-.85-.86-5.21a7.92,7.92,0,0,0-9.08-6.54L46.07,81a7.91,7.91,0,0,0-6.53,9.09l4.25,26a7.91,7.91,0,0,0,9.09,6.54l31.25-5.11a7.9,7.9,0,0,0,6.54-9.09Z"/><path class="cls-1" d="M76.77,64.48,69.9,58a1.84,1.84,0,1,1,2.53-2.67l6.87,6.52a1.84,1.84,0,0,1-2.53,2.67Z"/><path class="cls-1" d="M113.5,64.14a1.84,1.84,0,0,1-.07-2.61L120,54.67a1.84,1.84,0,0,1,2.67,2.52l-6.52,6.87a1.82,1.82,0,0,1-1.29.58,1.89,1.89,0,0,1-1.32-.5Z"/><path class="cls-1" d="M95.72,61.55a1.75,1.75,0,0,1-.59-1.27l-.27-9.45a1.91,1.91,0,0,1,3.81-.1l.26,9.44a1.87,1.87,0,0,1-1.86,1.88,2,2,0,0,1-1.35-.5Z"/></g></g></svg>