<svg xmlns="http://www.w3.org/2000/svg" viewBox="0 0 186.87 186.87"><defs><style>.cls-1{fill:#fff;}</style></defs><title>重复</title><g id="图层_2" data-name="图层 2"><g id="图层_1-2" data-name="图层 1"><path class="cls-1" d="M94.8,65.9h30.78a68.44,68.44,0,0,0,9.78-.58v6.29a67.18,67.18,0,0,0-9.78-.58H94.8v6.58h22.75a58.92,58.92,0,0,0,7.74-.38,51.5,51.5,0,0,0-.39,6.68v17.32a47.39,47.39,0,0,0,.39,6.59,62.38,62.38,0,0,0-7.84-.39H94.8v7.36h24.39a68.05,68.05,0,0,0,9.78-.58v6.48a68.44,68.44,0,0,0-9.78-.58H94.8v8.13H126a69.81,69.81,0,0,0,9.87-.58v6.58a71.34,71.34,0,0,0-9.87-.58H59.66a69,69,0,0,0-9.78.58v-6.58a67.48,67.48,0,0,0,9.78.58H88.89v-8.13H66.34a66,66,0,0,0-9.68.58v-6.48a68.4,68.4,0,0,0,9.68.58H88.89v-7.36H68a60.7,60.7,0,0,0-7.74.39,50.23,50.23,0,0,0,.39-6.59V83.91a51.5,51.5,0,0,0-.39-6.68,58.92,58.92,0,0,0,7.74.38H88.89V71H60.05a68.94,68.94,0,0,0-9.78.58V65.32a66.63,66.63,0,0,0,9.78.58H88.89V58.45C69.63,59.71,69.63,59.71,58.69,60a15.2,15.2,0,0,0-2.42-5.42H61.4a329.6,329.6,0,0,0,47.82-3.78,56.44,56.44,0,0,0,12.29-3.1l4.26,5.52c-.19.1-5.22,1-15,2.71-2,.39-9.87,1.36-16,1.94ZM88.89,82.36H66.63V90.1H88.89Zm0,12.49H66.63v7.84H88.89Zm30-4.75V82.36H94.8V90.1Zm0,12.59V94.85H94.8v7.84Z"/><path class="cls-1" d="M173.41,63.91a85.24,85.24,0,1,1-80-55.69A85,85,0,0,1,155.85,35.5,4.79,4.79,0,0,0,159.58,34a6.51,6.51,0,0,0,1.5-4.48A91.69,91.69,0,0,0,93.43,0a93.9,93.9,0,1,0,87.46,60.92c-1.87-1.12-5.24-1.5-7.48,3Z"/><path class="cls-1" d="M168.29,51.52l1.36-40a.73.73,0,0,0-1.08-.67L133.26,29.67a.74.74,0,0,0,0,1.27l34,21.17A.73.73,0,0,0,168.29,51.52Z"/></g></g></svg>