<svg xmlns="http://www.w3.org/2000/svg" viewBox="0 0 666.67 53.24"><defs><style>.cls-1{fill:#fff;}</style></defs><title>英文字体</title><g id="图层_2" data-name="图层 2"><g id="图层_1-2" data-name="图层 1"><path class="cls-1" d="M35.44,51.18c-2.53,1.13-6.95,2-13,2C9.16,53.2,0,45.25,0,32.2,0,20.36,5.44,12,13.2,7.22c5.11-3.17,11-4.57,17.76-4.57a27.08,27.08,0,0,1,10.8,1.91L38.51,14.65A25.33,25.33,0,0,0,30,13.27a16.31,16.31,0,0,0-10,3.06c-3.88,3-6.44,7.92-6.44,14.49,0,7.43,4.6,11.78,12.22,11.78a24.64,24.64,0,0,0,8.82-1.44Z"/><path class="cls-1" d="M87.64,16.65,83.2,40.26c-1,4.76-1.53,8.87-2,12.18H70.24L70.78,47l-.14,0c-3.88,4.66-8.06,6.26-12.19,6.26-6.2,0-9.07-3.69-9.07-9.86a37.37,37.37,0,0,1,.73-6.83l3.76-19.9h12.4L62.73,35.47A27.92,27.92,0,0,0,62.22,40c0,1.69.69,3.24,2.71,3.24,3.16,0,6-3.91,7.32-10.73l3-15.84Z"/><path class="cls-1" d="M98.07,41.67a26,26,0,0,0,10,2.58c2.47,0,3.53-.94,3.53-2.14s-1.11-2.29-4.24-3.73c-4.11-1.91-8-4.89-8-9.65,0-7.91,7-12.88,16.89-12.88,4.56,0,8,.86,9.92,1.88l-2.83,8.63a19.37,19.37,0,0,0-7.57-1.52c-2.38,0-3.91.72-3.91,2.18,0,1,1.35,2.05,4.11,3.29,3.86,1.87,8.57,4.56,8.57,9.93,0,8.47-7.31,13-17.6,13-4.8,0-9.46-1.25-11.77-2.94Z"/><path class="cls-1" d="M157.27,6.49,155.4,16.65h7.24l-1.82,9.4h-7.26l-2,9.9a24.06,24.06,0,0,0-.54,4c0,1.58.65,2.8,2.91,2.8.85,0,1.93,0,2.89-.09l-1.6,9.69a23,23,0,0,1-6.84.86c-6.73,0-10.07-3.2-10.07-8a31.3,31.3,0,0,1,.75-6.6l2.45-12.57h-4.35l1.77-9.4h4.36l1.38-7.29Z"/><path class="cls-1" d="M207.76,30.55c0,13.89-9.45,22.69-22,22.69-9.16,0-15.69-5.57-15.69-14.84,0-12.6,8.85-22.55,22-22.55C201.69,15.85,207.76,22.13,207.76,30.55ZM182.93,38.2c0,3.49,1.6,5.66,4.6,5.66,5.07,0,7.4-8.06,7.4-13.19,0-3-1.24-5.43-4.48-5.43C185.09,25.24,182.91,33.8,182.93,38.2Z"/><path class="cls-1" d="M217.64,52.44,222,28.84c.89-4.77,1.48-8.88,1.95-12.19h10.58L234,22.11h.09a14.39,14.39,0,0,1,12.07-6.26c5.8,0,8.2,3.7,8.51,6.26a14.71,14.71,0,0,1,12-6.26c6.11,0,8.74,4,8.74,9.71a46.45,46.45,0,0,1-.62,6.19l-3.83,20.69h-12l3.5-19.09a25.12,25.12,0,0,0,.47-4.2c0-1.95-.93-3.4-2.75-3.4-3.09,0-5.83,4.52-7.11,11.4l-2.87,15.29H238.27l3.55-19.09a23.82,23.82,0,0,0,.47-4c0-2.2-.76-3.63-2.55-3.63-3.16,0-6.1,4.6-7.34,11.4l-2.78,15.29Z"/><path class="cls-1" d="M317.85,50.38c-4.78,2.35-10.38,2.82-14,2.82-10.52,0-16.25-5.49-16.25-15.44,0-10.91,7.85-21.91,21.36-21.91,7.46,0,13.28,4.1,13.3,11.41,0,8.94-8.15,12.63-22.93,12.19a4.42,4.42,0,0,0,1.31,2.35c1.36,1.2,3.54,1.86,6.36,1.86a23.47,23.47,0,0,0,10.2-2.19ZM307.47,24.82a6.88,6.88,0,0,0-7,5.67c7.55.07,10.2-1,10.2-3.29C310.67,25.91,309.51,24.82,307.47,24.82Z"/><path class="cls-1" d="M331.45,52.44l3.89-20.55c1.06-5.69,1.48-12.25,1.84-15.24h10.69c-.14,2.39-.29,4.77-.51,7.15h.24c2.6-4.69,6.63-8,11.58-8,.71,0,1.38,0,2.05.06L358.82,28c-.48,0-1.08,0-1.66,0-7.29,0-9.78,5.78-11,12.27l-2.31,12.24Z"/><path class="cls-1" d="M389.36,52.44l4.95-26.39h-4.55l1.76-9.4h4.57l.33-1.8c.7-3.92,2.36-8.29,6.09-11.34C405.65.85,409.74,0,413.43,0a16,16,0,0,1,5.84.89l-2,9.8a9.16,9.16,0,0,0-3.29-.54,5.46,5.46,0,0,0-5.25,4.74l-.35,1.76H415l-1.76,9.4h-6.57l-4.94,26.39Z"/><path class="cls-1" d="M459.76,30.55c0,13.89-9.45,22.69-22,22.69-9.16,0-15.69-5.57-15.69-14.84,0-12.6,8.85-22.55,22-22.55C453.69,15.85,459.76,22.13,459.76,30.55ZM434.93,38.2c0,3.49,1.6,5.66,4.6,5.66,5.07,0,7.4-8.06,7.4-13.19,0-3-1.24-5.43-4.48-5.43C437.09,25.24,434.91,33.8,434.93,38.2Z"/><path class="cls-1" d="M469.63,52.44l3.9-20.55c1.05-5.69,1.47-12.25,1.83-15.24h10.69c-.14,2.39-.29,4.77-.51,7.15h.24c2.6-4.69,6.64-8,11.58-8,.71,0,1.38,0,2.06.06L497,28c-.47,0-1.07,0-1.66,0-7.29,0-9.78,5.78-11,12.27L482,52.44Z"/><path class="cls-1" d="M536,3.42h12.4l-7.2,38.18H559.6l-2,10.84H526.69Z"/><path class="cls-1" d="M570.29,52.44l6.78-35.79h12.4l-6.78,35.79Zm8.45-45.15A6.7,6.7,0,0,1,585.63.56c3.48,0,6,2.22,6,5.75,0,4.31-3.32,6.69-7.09,6.69A5.46,5.46,0,0,1,578.74,7.29Z"/><path class="cls-1" d="M599.4,52.44l4.94-26.39H599.8l1.76-9.4h4.56l.33-1.8c.71-3.92,2.36-8.29,6.09-11.34A16.78,16.78,0,0,1,623.47,0a16,16,0,0,1,5.84.89l-2,9.8a9.24,9.24,0,0,0-3.29-.54,5.48,5.48,0,0,0-5.26,4.74l-.34,1.76H625l-1.76,9.4h-6.56l-5,26.39Z"/><path class="cls-1" d="M662.29,50.38c-4.78,2.35-10.38,2.82-14,2.82C637.74,53.2,632,47.71,632,37.76c0-10.91,7.86-21.91,21.37-21.91,7.45,0,13.27,4.1,13.29,11.41,0,8.94-8.15,12.63-22.93,12.19a4.49,4.49,0,0,0,1.31,2.35c1.36,1.2,3.55,1.86,6.36,1.86a23.41,23.41,0,0,0,10.2-2.19ZM651.91,24.82a6.87,6.87,0,0,0-7,5.67c7.54.07,10.2-1,10.2-3.29C655.11,25.91,653.94,24.82,651.91,24.82Z"/></g></g></svg>