<svg xmlns="http://www.w3.org/2000/svg" xmlns:xlink="http://www.w3.org/1999/xlink" viewBox="0 0 138.12 138.12"><defs><style>.cls-1,.cls-4{fill:none;}.cls-2{clip-path:url(#clip-path);}.cls-3{fill:#6bf8ff;}.cls-4{stroke:aqua;stroke-miterlimit:10;stroke-width:0.75px;}</style><clipPath id="clip-path"><rect class="cls-1" x="8.08" y="8.01" width="121.96" height="122.1"/></clipPath></defs><title>成功02</title><g id="图层_2" data-name="图层 2"><g id="图层_1-2" data-name="图层 1"><g class="cls-2"><path class="cls-3" d="M69,8.07A60.95,60.95,0,1,0,130,69,61,61,0,0,0,69,8.07ZM98.82,53.94,64.69,94.63a5.39,5.39,0,0,1-7.57.66l-.48-.4a5.8,5.8,0,0,1-.8-.84L40.77,79.39a5.38,5.38,0,0,1-.67-7.57l.41-.48a5.38,5.38,0,0,1,7.56-.66l12,11.71,30-35.75A5.36,5.36,0,0,1,97.68,46l.48.4a5.36,5.36,0,0,1,.66,7.56Z"/></g><path class="cls-4" d="M69.06.38a68.68,68.68,0,1,0,68.68,68.68A68.68,68.68,0,0,0,69.06.38Z"/></g></g></svg>