<svg xmlns="http://www.w3.org/2000/svg" viewBox="0 0 901.01 57.78"><defs><style>.cls-1{fill:#fff;}</style></defs><title>遗漏02222</title><g id="图层_2" data-name="图层 2"><g id="图层_1-2" data-name="图层 1"><path class="cls-1" d="M7.61,56.12,4.28,51.84A4.26,4.26,0,0,0,5.94,48V25.21H0v-5H11.17V46.85q2.87-2.15,5.47-4.28a16.44,16.44,0,0,1,.48,2.85,16,16,0,0,1,.47,3.09q-4,2.39-7.37,4.76l-1,.95A5.24,5.24,0,0,0,7.61,56.12Zm2.85-41.85q-3.81-5-7.85-9.75L6.66,1.9q5,5,8.32,9Zm6.66-5.45V5H33.76V.5H39V5h17.6V8.82H39v4H54.68v3.57H39v4H57.54v3.81H15.69V20.47H33.76v-4H18.31V12.86H33.76v-4ZM19.52,57v-29H53.24V49.67c.15,4.59-2.22,6.89-7.14,6.89H42.3c-2.22.16-3.81.24-4.76.24-.47-1.42-.95-3-1.42-4.75q2.85.23,8.08.23,4,.24,3.8-3.09v-1.9H25V57ZM25,31.89v4.22H48V31.89Zm0,7.55v4.28H48V39.44Z"/><path class="cls-1" d="M79,22.83a31.79,31.79,0,0,0-1.67-3.33,10.3,10.3,0,0,1-.95-1.9A61,61,0,0,0,89.21,0l5.23,1.9a77.83,77.83,0,0,1-5.23,8.56V35.19H84V17.36Q81.6,20.21,79,22.83ZM81.81,53l-5-2.14a64.25,64.25,0,0,0,5.71-13.07l5.23,1.66Q84.9,46.84,81.81,53Zm16.66,2.62q-7.62,0-7.61-7.13v-10h5.47v8.56c0,2.38,1.34,3.57,4,3.57h10c3.48.32,5.39-.87,5.7-3.57a25.35,25.35,0,0,0,1-5.23A25.25,25.25,0,0,0,120.1,43l2.15.71a45.23,45.23,0,0,1-1.19,5.47,1.84,1.84,0,0,0-.24.72q-1.42,5.94-9,5.7ZM96.31,32.57a26.78,26.78,0,0,0-4-3.32,85,85,0,0,0,10.22-11.42L107,20.69Q101.55,27.35,96.31,32.57Zm1-13.34A9,9,0,0,0,95.6,18c-1.11-.95-2-1.66-2.62-2.14A62.63,62.63,0,0,0,103.21.21l5.47,1L107.25,4a10.34,10.34,0,0,0-1.19,2.14H132v5l-3.33,7.38a15.9,15.9,0,0,0-4.28-1.43,1.86,1.86,0,0,0-.71-.24l2.85-5.94h-23.3A63.45,63.45,0,0,1,97.26,19.23Zm10.46,27.14A68,68,0,0,0,100.59,38l4-2.85q3.81,3.57,7.61,7.85ZM104.17,35c-.31-1.42-.71-3-1.18-4.75a35.87,35.87,0,0,0,4.75.23q3.81,0,3.57-3.09V14.27h5.23V28.06q.24,6.66-6.9,6.89Zm25.43-2.38c-.95-.95-2.3-2.37-4-4.28q-3.81-4.27-6.18-6.65l3.8-3.09,10.7,10.7Zm.24,18.55Q126.27,45.65,121,39l4.28-2.85q5.24,6.42,9.27,12.36Z"/><path class="cls-1" d="M159.1,27.09V6.17h5.7V21.86h14.51V.7h5.94V21.86h14.51V6.17h5.7V27.09H185.25V49.43h16.39V33.74h5.47V56.56h-5.47V54.18H157.21V33.74h5.71V49.43h16.39V27.09Z"/><path class="cls-1" d="M235,52.07a12.18,12.18,0,0,1-1.19-.71c-.8-.64-1.91-1.43-3.33-2.38a166.76,166.76,0,0,0,12.6-18.31l5,3.09A216,216,0,0,1,235,52.07Zm-4.5-26.14V20.46H288v5.47H263V48.05q.48,8.07-7.84,8.32h-8.8c-.32-1.9-.72-3.89-1.19-5.95q3.09.24,7.37.24,4.75.24,4.52-3.8V25.93Zm6.16-16.68V3.79h45.65V9.25Zm46.6,41.87-.71-.71Q274.2,39.47,269.68,34l4.52-3.09q.94,1.18,3.33,3.8,7.37,9,10.46,13.08Z"/><path class="cls-1" d="M308.22,50.89V45.42h55.4v5.47Zm4.28-37.08V7.87h46.84v5.94Z"/><path class="cls-1" d="M385.51,24.73l-1.67-5a10.77,10.77,0,0,0,2.86-3.09A96.37,96.37,0,0,0,395.49.24l5.24,1.9q-6.42,11.18-10.47,17.36l6.42-.24q1.9-3.33,3.33-6.42l4.76,2.38Q397.39,27.34,392.17,35l10.7-.71a20.61,20.61,0,0,0-.48,4.52,149.27,149.27,0,0,0-15.69,1.9L385,35.9l.48-.47a11.12,11.12,0,0,0,3.33-3.33,23.88,23.88,0,0,0,1.9-3.33c1.43-2.06,2.46-3.64,3.09-4.76-2.54.16-5.15.4-7.85.72ZM384.79,53l-.71-4.75q12.14-1.67,19-2.86v5Q392.41,51.6,384.79,53Zm18.79-24a19.28,19.28,0,0,0-2.38-5.23A69.66,69.66,0,0,0,412.62.5l5.71,1c-.31.79-.79,2-1.42,3.56q-.72,1.67-2.38,6H426q-.94-2.62-3.33-8.32-.48-.48-.48-.72l5-1.19Q429,4.78,431.19,10l-4.05,1H440.7v4.51H429.29v8.09H440v4.52h-10.7V36.4H440v4.52h-10.7v8.56h12.12v4H413.09v3.81h-5.47v-34a45.55,45.55,0,0,1-3.09,4.52A5,5,0,0,0,403.58,29Zm9.51-13.56v8.09h11.2V15.47Zm0,12.61V36.4h11.2V28.08Zm0,12.84v8.56h11.2V40.92Z"/><path class="cls-1" d="M462.3,9.75V5.24H484V9.75h-8.33a64.57,64.57,0,0,1-4.53,12.83h11.2V54.47h-4.52V50.66h-6.93v4.76h-5V31.63a41.42,41.42,0,0,1-3.57,5c-.47-1.9-1-4-1.66-6.18a57.25,57.25,0,0,0,9.52-20.7Zm8.56,17.35V46.62h6.93V27.1ZM484.91,44V39h22.35v5ZM498,56.33c-.16-.8-.4-2-.71-3.57a16.12,16.12,0,0,0-.48-1.9c1.9.16,4.76.24,8.56.24,3.17.15,4.84-1.19,5-4.05q.48-7.12.72-15.45H487.29l1.9-20.21h5.23L493,26.61h12.12L507,8.53H486.58v-5H513l-2.38,23.07h5.95q-.24,4.28-.48,12.6-.48,5.94-.48,8.56,0,8.55-9.51,8.56Z"/><path class="cls-1" d="M560.3,20.21q-5.24-6.9-9-12.36a91.36,91.36,0,0,1-11.65,17.59,43.5,43.5,0,0,0-2.38-5.23A69.3,69.3,0,0,0,548.89.48l5.47.71a2.46,2.46,0,0,1-.48,1,11,11,0,0,1-.47,1.19c1.26,1.43,3.09,3.57,5.47,6.42,2.21,2.69,4,4.83,5.23,6.42Zm-5.7,36.4q-5.24-5.46-14.75-14.26L543,39q1.18.94,3.56,3.09,2.15,1.91,3.33,3.09l6.42-11.65H539.38V28.79h22.35v5l-8.32,14.74,4.75,4.28Zm-3.1-29.74a67.06,67.06,0,0,0-4.75-8.09l3.8-2.37a3.91,3.91,0,0,0,.72.95,52.78,52.78,0,0,1,4.28,7.13Zm40,30q-4.05-3.81-11.17-10a20.23,20.23,0,0,1-1.67-1.43q-2.85,6-14.5,12.37a12.68,12.68,0,0,1-1.19-1.43,33.05,33.05,0,0,0-2.38-2.85q9.51-4.52,12.36-8.56c2.22-2.86,3.33-7,3.33-12.6V23.06h5v9.28a33.77,33.77,0,0,1-1,8.56Q587.17,46.6,595,53Zm-29-49V3.11H595V7.86H581.25l-1.67,7.36h13.08V42.56h-4.75V19.74H569.59V43h-4.75V15.22h9.27l1.43-7.36Z"/><path class="cls-1" d="M615.51,8.11V3.35h27.3V8.11H640V40.68c.63-.16,1.42-.31,2.37-.47a10,10,0,0,1,2.38-.48v5l-4.75.72V57.33h-5V46.39a23.89,23.89,0,0,1-2.84.47q-6.64,1-17.09,2.62l-.71-5.23,4.76-.48V8.11Zm8.56,0v8.32H635V8.11Zm0,12.6v8.5H635v-8.5Zm0,22.3a87.57,87.57,0,0,1,9.71-1.43,3.84,3.84,0,0,1,1.18-.24V33.5H624.07Zm44.67,13.36a77,77,0,0,1-11.41-10.93,105.23,105.23,0,0,1-12.6,11.88A33,33,0,0,0,642.59,54a13.86,13.86,0,0,0-1.19-1.43,54.09,54.09,0,0,0,12.84-11.65q-6.66-10.47-8.56-30.2h-1.19v-5h25v5q-2.38,19.5-9,30.2a47.69,47.69,0,0,0,11.65,10.7c-.32.47-.71,1.11-1.19,1.9Zm-4.51-45.65H650.67q2.15,16.41,6.66,25Q662.09,27.13,664.23,10.72Z"/><path class="cls-1" d="M693.28,42.32q-1-2.39-2.14-5.47a61,61,0,0,0,19-19.74H693.28v-5H716.1v5.47a97,97,0,0,1-7.37,10.7v29h-5.47V34.23A102.4,102.4,0,0,1,693.28,42.32Zm12.81-31.14a21.53,21.53,0,0,0-1.66-2.62,69.14,69.14,0,0,0-3.81-6.18L705.38.24c.47.63,1.11,1.58,1.9,2.85l3.8,5.71ZM718.45,40a101.43,101.43,0,0,0-9.27-7.61l3.57-3.57A98.74,98.74,0,0,1,722,35.9ZM733,55.4q-8.55.23-8.32-8.56V1h5.71V45.89c-.16,3,1.26,4.43,4.28,4.28h2.85c3,.15,4.68-1.27,5-4.28A10.24,10.24,0,0,1,742.7,44c.32-3.32.48-5.86.48-7.6q3.09,1.18,5.7,1.9a24.14,24.14,0,0,0-.47,3.09c-.32,3.33-.64,5.78-.95,7.37q-1,6.66-9.28,6.66Z"/><path class="cls-1" d="M770.76,57.09V30.68h22.58V57.09h-5.23V53.52H776v3.57ZM776,35.44v13.8h12.12V35.44Zm.5-11.21V3.11h40.89V24.23ZM782.2,8.1V19.24h29.47V8.1Zm18.08,49V30.68h22.59V57.09h-5V53.52H805.51v3.57Zm5.23-21.65v13.8h12.36V35.44Z"/><path class="cls-1" d="M855.65,56.55a1.63,1.63,0,0,1-1.16-2.79l24.27-24.25a1.63,1.63,0,0,0,0-2.31L854.51,2.91A1.65,1.65,0,1,1,856.83.56l24.25,24.32a4.91,4.91,0,0,1,0,6.93L856.83,56.13a1.64,1.64,0,0,1-1.18.42Z"/><path class="cls-1" d="M874.14,56.55A1.63,1.63,0,0,1,873,53.76l24.27-24.25a1.63,1.63,0,0,0,0-2.31L873,2.91A1.65,1.65,0,1,1,875.32.56l24.25,24.32a4.89,4.89,0,0,1,0,6.93L875.32,56.13a1.64,1.64,0,0,1-1.18.42Z"/></g></g></svg>