<svg xmlns="http://www.w3.org/2000/svg" viewBox="0 0 554.58 57.57"><defs><style>.cls-1{fill:#fff;}</style></defs><title>02</title><g id="图层_2" data-name="图层 2"><g id="图层_1-2" data-name="图层 1"><path class="cls-1" d="M0,26.14V21.39H17.36q-1-1.66-3.57-5.47c-.63-1.11-1.11-1.9-1.43-2.38l5.23-1.66c.48.63,1.11,1.58,1.91,2.85q2.61,4.05,3.8,5.71l-1.9.95H33.76l2.86-4.28A37.2,37.2,0,0,1,40,11.88l5.23,1.66-1.43,2.14c-1.59,2.54-2.85,4.44-3.8,5.71H57.06v4.75H31.86v7.18H54.21v4.75H31.86v9.75q.48,8.57-8.32,8.32-3.33.24-7.37.24c-.32-1.74-.71-3.56-1.19-5.47,2.38.16,4.67.24,6.89.24q4.75.24,4.52-4v-9H2.85V33.32H26.39V26.14ZM4,54A20.23,20.23,0,0,1,2.6,52.32,9.72,9.72,0,0,0,.46,49.71a98.09,98.09,0,0,0,14.27-10l3.8,3.81q-4,3.33-12.12,8.79C5.29,53.12,4.5,53.67,4,54ZM2.84,11.41V6.66H26.62L24.48.71,30.66,0A36.53,36.53,0,0,1,32.8,6.66H54.2v4.75ZM52.06,53.75q-4.53-3.09-15-9.51l3.33-4q7.13,4.27,15,9.75Z"/><path class="cls-1" d="M93.68,5.48l-1.42,35h-5L86.08,5.48ZM93.21,54h-6.9v-6.9h6.9Z"/><path class="cls-1" d="M153.85,16.4v-5h7.61V.47h5.47V11.41h7.37v5h-7.37V27.34a54.61,54.61,0,0,0,7.61-1.9c0,1.9.08,3.72.24,5.47L166.93,33V49.45c.32,4.44-1.75,6.66-6.18,6.66q-3.81.24-5.95.24a10.34,10.34,0,0,0-.47-2.38q-.24-2.14-.48-3.33a43,43,0,0,0,4.76.24A2.52,2.52,0,0,0,161.46,48V34.71l-7.85,1.9-.47-5.94q1.67-.24,5.47-1.19l2.85-.71V16.4Zm24,15V26.14h24V10.25H176.44V4.78h31.39V56.87h-6v-3.1H174.3v-5h27.58V31.37Z"/><path class="cls-1" d="M231.6,9.53V5h21.67V9.53h-8.33a64.17,64.17,0,0,1-4.53,12.83h11.2V54.24h-4.52v-3.8h-6.93v4.75h-5V31.41a42.22,42.22,0,0,1-3.57,5c-.47-1.91-1-4-1.66-6.19a57.2,57.2,0,0,0,9.52-20.69Zm8.56,17.35V46.4h6.93V26.88Zm14.05,16.91v-5h22.35v5ZM267.29,56.1c-.16-.79-.4-2-.71-3.56a16.36,16.36,0,0,0-.48-1.91c1.9.16,4.76.24,8.56.24,3.17.16,4.84-1.19,5-4q.48-7.14.72-15.45H256.59l1.9-20.22h5.23L262.3,26.38h12.12l1.91-18.07H255.88v-5h26.39l-2.38,23.07h5.95q-.24,4.29-.48,12.6-.48,6-.48,8.56,0,8.57-9.51,8.56Z"/><path class="cls-1" d="M308.68,27.61V23.33h23.54a14.79,14.79,0,0,0,.47-4h5.47a15,15,0,0,1-.24,2.38v1.66h9.75a6,6,0,0,0-.95-1.66,4.92,4.92,0,0,0-1-1.67l5-.95,1,1.9,1.18,2.38h10.23v4.28H340.3q4.29,6.18,24,6.42l-.72,2.14c-.47,1.27-.79,2.14-1,2.62q-22.81-1.66-27.1-10Q333.17,35.92,308.68,39l-1.9-4.52q21.39-2.13,23.77-6.89Zm2.63-9.31V3.12H332.2V18.3Zm.25,38.77V39.27h20.88V56.83h-4.75V54.45H316.55v2.62Zm4.75-49.91v7.1h11.13V7.16Zm.24,36.16v6.85h11.14V43.32Zm22.09-25V3.12h21.19V18.3Zm16.19,38.77V54.45H343.64v2.38h-5V39.27h20.95v17.8ZM343.64,7.16v7.1h11.2V7.16Zm0,36.16v6.85h11.19V43.32Z"/><path class="cls-1" d="M421.86,56.86V43.31H403.32q-.48,9-12.13,14.26l-2.14-2.14a20,20,0,0,1-2.38-1.9q10.69-4.28,11.18-10.22h-14V38.55h14.26q.24-3.09.24-5.94H404l-.24,5.94h18.07V32.61h5.71v5.94h13.31v4.76H427.57V56.86ZM398.11,30.22q-8.33.48-8.09-8.32V2.64h43V19H395.49v2.39c-.16,3,1.35,4.46,4.52,4.3h28.77q5.24.24,5.71-3.57a36.75,36.75,0,0,0,.95-5.47c.63.16,1.58.48,2.85.95a17,17,0,0,1,2.62.95c-.64,2.38-1.19,4.6-1.67,6.66q-1.19,5.23-9.27,5ZM395.49,7.15v7.36h32.09V7.15Z"/><path class="cls-1" d="M462.58,20.47V9.53h12.11a14.41,14.41,0,0,0-1.19-.95Q469.71,5,467.57,3.35l5.22-1.9q1.18.95,4,3.56c1.9,1.59,3.24,2.78,4,3.57l-2.14.95h7.83V.26h5.71V9.53h7.38l-1.9-.95q3.81-3.09,8.09-6.89l5.24,1.66q-2.15,2.15-5.95,5.23a5.25,5.25,0,0,1-1.19.95h12.37V20.47h-5.7V14H468.05v6.44Zm36.84,32.78a37.77,37.77,0,0,0-1.19-4.52,48.88,48.88,0,0,0,5.95.24q3.79.24,3.56-3.09V41.36H492.27v15.7h-5.95V41.36H471.09V53h-5.47V36.85h20.7V32.12H470.61V18.58h37.61V32.12h-16v4.73h20.94v9.74q.24,6.42-6.89,6.66ZM476.08,22.62v5.46h26.67V22.62Z"/><path class="cls-1" d="M554.58,5.48l-1.42,35h-5L547,5.48ZM554.11,54h-6.9v-6.9h6.9Z"/></g></g></svg>