<svg xmlns="http://www.w3.org/2000/svg" viewBox="0 0 1020.25 59.41"><defs><style>.cls-1{fill:#fff;}</style></defs><title>06</title><g id="图层_2" data-name="图层 2"><g id="图层_1-2" data-name="图层 1"><path class="cls-1" d="M.48,11.64V6.88H10.94V1.41h5.47V6.88H41.62V1.41h5.46V6.88H57.31v4.76H47.08V31.36H31.62v5.71H56.83v4.76H35.19a53.16,53.16,0,0,0,22.59,9.75c-.48.79-1.11,1.9-1.9,3.33-.48.79-.8,1.34-1,1.66q-15.45-5-23.3-12.36V58.47H26.16V44.21Q18.3,52.05,2.85,57.05a10.41,10.41,0,0,0-1.18-2.14C.87,53.64.32,52.69,0,52.05Q13.56,49,22.83,41.83H1V37.07H26.16V31.36H10.94V11.64Zm15.93,0V17.1H41.62V11.64Zm0,9.74v5.47H41.62V21.38Z"/><path class="cls-1" d="M84.88,25.14c-1.59-.95-3.25-2-5-3.09q6.18-7.14,9.75-19.26L95.34,4q-.72,1.66-1.9,4.75a23.22,23.22,0,0,1-1.19,3.33h12.13V1.36h5.7v10.7h20.45v5.23H110.08V27.77h24v5.47H115.8V48q-.24,3.57,3.81,3.33h5a3.78,3.78,0,0,0,4.28-3.09q.24-1.42.48-5.7c0,.47.07-.08.23-1.67l5.23,1.9a54.07,54.07,0,0,1-.95,7.85q-1.67,6.18-8.79,5.94h-7.37q-7.86.24-7.61-7.13V33.24h-11v2.14q0,15.93-18.78,22.82C79.41,56.78,78.3,55,77,53q16.41-4.76,16.41-17.83v-1.9H77.74V27.77h26.64V17.29H89.63A53.81,53.81,0,0,1,84.88,25.14Z"/><path class="cls-1" d="M159.32,29.22c-.48-.32-1.35-.87-2.62-1.67-1.11-.79-1.9-1.34-2.38-1.66A65.82,65.82,0,0,0,165.74,4.25l5.7,1c-.47,1.27-1.11,3.09-1.9,5.47a16.43,16.43,0,0,0-1.19,2.85h12.84V1.16h5.71V13.52h21.4v5.23H186.9V31.36h19.49v5.23H186.9V50.35h24.49v5H154.56v-5h26.63V36.59H160.5V31.36h20.69V18.75H165.74A90,90,0,0,1,159.32,29.22Z"/><path class="cls-1" d="M241.87,59.41,239.73,57q5.94-3.81,5.7-9.27h-4.28V39.43H249v7.14A13.46,13.46,0,0,1,241.87,59.41Z"/><path class="cls-1" d="M308.19,12.8V8.28h4.05V2.1h5.23V8.28h11.45V1.86h5.23V8.28H338V12.8h-3.8V39.69h4.51v4.52H307.48V39.69h4.76V12.8ZM311.55,58a24.63,24.63,0,0,0-4-3.57,57.85,57.85,0,0,0,9.27-9.51L321.06,48q-2.15,2.38-6.18,6.66Zm5.92-45.18V19h11.45V12.8Zm0,10.47v5.95h11.45V23.27Zm0,10.23v6.19h11.45V33.5Zm14,22.1A65.6,65.6,0,0,0,324.39,48l3.8-3.09Q332.24,49,335.56,52Zm7.37,2.86c-.47-.31-1.18-.87-2.14-1.66a19.84,19.84,0,0,1-2.37-1.9,23.84,23.84,0,0,0,5.46-10.7q1.44-5.72,1.43-17.12V3.54h21.18V51.09q0,6-5.94,6.18a65.27,65.27,0,0,1-6.9.24,21.67,21.67,0,0,0-1.43-5.23,31.68,31.68,0,0,1,3.33.24h2.38q3.57,0,3.33-2.85V39H346A37.17,37.17,0,0,1,338.89,58.46Zm7.61-31.14q0,3.56-.24,6.65h11V23.75H346.5Zm0-18.79V19h10.72V8.53Z"/><path class="cls-1" d="M386.21,40.86c-.16-.48-.39-1.11-.71-1.9a20.71,20.71,0,0,1-1.43-3.81,65.19,65.19,0,0,0,14-18.07l4.52,2.86A72.11,72.11,0,0,1,397.39,28v30.2h-5.23V34.68A43.87,43.87,0,0,1,386.21,40.86Zm1.21-19c-.8-1.74-1.67-3.49-2.62-5.23A63.36,63.36,0,0,0,398.12,1.39l4.51,3.09A84.89,84.89,0,0,1,387.42,21.84Zm18.27-8.07V9h13.56V1.4h5.47V9H439v4.76H424.72v7.6h17.11v4.76H402.6V21.37h16.65v-7.6ZM402.85,38V33h24.49V28.24h5.47V33h8.8v5h-8.8V50.12q.24,7.37-8.08,7.37h-8.32a43.78,43.78,0,0,0-1-5.47q2.39.24,7.38.24c3.32.16,4.83-1.11,4.51-3.81V38Zm11.2,12.62q-3.81-4.28-7.85-8.32L410,39.2q3.33,3.09,8.33,8.08Z"/><path class="cls-1" d="M461.14,42.73V37.27h41.61v5.46Zm26.39,14.55c-.15-1-.39-2.38-.71-4.28a7.32,7.32,0,0,0-.48-1.67q5.48.24,12.13.24,8.32.48,8.56-6,.72-8.31,1.19-16.64H469.46l2.38-27.61h6l-.72,8.32H518v5.23H476.6l-.72,8.83H514.4q-.24,5.7-1.19,18.78-.24,2.63-.24,3.81-.22,10.94-12.6,10.7Q495.38,57.28,487.53,57.28Z"/><path class="cls-1" d="M540.13,23.74a31.75,31.75,0,0,0-1.67-3.33,11,11,0,0,1-1-1.9A60.89,60.89,0,0,0,550.35.91l5.23,1.91a77.24,77.24,0,0,1-5.23,8.56V36.1h-5.23V18.27C543.54,20.17,541.87,22,540.13,23.74ZM543,53.94l-5-2.14a64.06,64.06,0,0,0,5.7-13.08l5.23,1.66Q546,47.76,543,53.94Zm16.66,2.62q-7.61,0-7.61-7.14v-10h5.47V48c0,2.38,1.35,3.56,4,3.56h10q5.24.48,5.71-3.56a26.17,26.17,0,0,0,.95-5.23A27.44,27.44,0,0,0,581.25,44l2.14.71a45.65,45.65,0,0,1-1.19,5.47,1.81,1.81,0,0,0-.24.71q-1.43,5.94-9,5.71Zm-2.16-23.07a25.8,25.8,0,0,0-4-3.33,85.48,85.48,0,0,0,10.23-11.41l4.51,2.85Q562.69,28.26,557.45,33.49Zm1-13.35A10.14,10.14,0,0,0,556.74,19c-1.11-.95-2-1.66-2.61-2.14A62.23,62.23,0,0,0,564.35,1.12l5.47.95-1.43,2.86a10.58,10.58,0,0,0-1.19,2.14h25.92v5l-3.33,7.37A16.27,16.27,0,0,0,585.51,18a1.93,1.93,0,0,0-.71-.23l2.85-5.95h-23.3A63.6,63.6,0,0,1,558.41,20.14Zm10.46,27.14A68,68,0,0,0,561.73,39l4-2.86q3.79,3.57,7.6,7.85Zm-3.55-11.41c-.32-1.43-.72-3-1.19-4.76a35.54,35.54,0,0,0,4.75.24q3.81,0,3.57-3.09V15.18h5.23V29q.24,6.66-6.89,6.9Zm25.42-2.38q-1.43-1.43-4-4.28-3.81-4.28-6.18-6.66l3.8-3.09L595,30.16ZM591,52q-3.57-5.46-8.8-12.12l4.28-2.85q5.24,6.42,9.28,12.36Z"/><path class="cls-1" d="M616.67,9.26v-5h53.74v5H646.16V15.4h19.23V38.72h6.66v4.75h-6.66v6.66q.48,6.9-7.84,7.13H649A38,38,0,0,0,648,52h3.09c2.06.16,3.64.24,4.75.24q4.27.24,4-3.09V43.47h-33V58h-5.47V43.47H614.8V38.72h6.65V15.4h19.24V9.26Zm10.25,10.66v7.17h13.77V19.92Zm0,11.45v7.35h13.77V31.37Zm33-11.45H646.16v7.17h13.76ZM646.16,31.37v7.35h13.76V31.37Z"/><path class="cls-1" d="M696.58,53.22l-5.23-2.61q4.29-7.61,10.94-23.06a40.47,40.47,0,0,0,5.23,2.61Zm5.24-31.38-4.28-7.13Q694.44,9.48,693,7.1l4.75-2.62q4.76,7.37,9.28,14.5ZM745.09,57.5q-14.75-9-18.07-22.82-2.85,13.55-19.74,23.77-.94-1.19-3.56-4.51l-.48-.48Q722,43.95,723.45,27.07a55.85,55.85,0,0,0,.48-7.85h5.7a27,27,0,0,1-.23,2.86v2.61q2.85,19,19.73,27.82C747.71,54.25,746.36,55.92,745.09,57.5ZM742,28a22.4,22.4,0,0,0-3.33-.95,16.12,16.12,0,0,1-1.9-.48l4.28-10.7H719.17A104.63,104.63,0,0,1,713,27.78c-.32-.16-.87-.47-1.66-1-1.59-.95-2.7-1.58-3.33-1.9A72.17,72.17,0,0,0,718.46,1.39l5.71,1.19c-1,2.85-1.91,5.55-2.86,8.08H747v5.23Z"/><path class="cls-1" d="M769.13,17.78v-5h8.08V1.62h5.24V12.79h7.37v5h-7.37v9l1.42-1.67c1.11,1,2.62,2.38,4.52,4.28,1.43,1.27,2.46,2.22,3.09,2.86l-3.33,3.8A39.85,39.85,0,0,0,785.3,33a39.85,39.85,0,0,1-2.85-3.09V58.2h-5.24V28.72a77.14,77.14,0,0,1-7.37,15c-.16-.79-.47-2-1-3.57a14.15,14.15,0,0,0-.95-3.32,55.3,55.3,0,0,0,8.8-19Zm23.54,40.46V4.94h30.68v53.3h-5.23V54.43H797.91v3.81Zm5.24-48.31v10h20.21v-10Zm0,14.73V34.94h20.21V24.66Zm0,15V49.92h20.21V39.7Z"/><path class="cls-1" d="M846.9,57.76l-2.61-5.47q1.19-.95,3.56-3.32c1.75-1.43,3-2.54,3.81-3.33V27.09h-6.19V21.62h11.42V45.87q4,6,12.84,5.71,14,.48,33,0a27.88,27.88,0,0,0-1.67,5.23H881.38q-7.14,0-12.6-.24-10-.23-14.51-6.42A68.41,68.41,0,0,0,846.9,57.76Zm8.31-41.63q-1.66-3.09-5.94-9.51c-.48-.79-.88-1.43-1.19-1.9l4.28-2.38a101.37,101.37,0,0,1,6.18,8.32c.79,1.11,1.35,1.9,1.66,2.38Zm9.53,8.09V3.8h32.81V24.22H883.49v4.29h16.68V43.25c.32,4.44-1.75,6.5-6.18,6.18q-2.15.24-7.37.24a22.41,22.41,0,0,0-1.19-3.8h6.42q3.55.24,3.33-3.09V32.32H882.77v5.94l5-.48-1.19-2.85,3.09-1c.32.79.88,2,1.67,3.57l2.14,5-3.33,1.19-.95-2.38L869.7,43,869,39l9.51-.47V32.32H867.12V49.2h-4.76V28.51H878.5V24.22Zm5-16.86v5h8.77V7.36Zm0,8.28v5h8.77v-5Zm22.83-8.28h-9.07v5h9.07Zm-9.07,8.28v5h9.07v-5Z"/><path class="cls-1" d="M939.16,6.62l-1.43,35h-5L931.55,6.62Zm-.47,48.51h-6.9v-6.9h6.9Z"/><path class="cls-1" d="M974.9,56.47a1.64,1.64,0,0,1-1.52-1,1.62,1.62,0,0,1,.36-1.79L998,29.42a1.62,1.62,0,0,0,0-2.3L973.75,2.83a1.65,1.65,0,0,1,0-2.34,1.64,1.64,0,0,1,2.33,0l24.26,24.31a4.91,4.91,0,0,1,0,6.93L976.07,56a1.59,1.59,0,0,1-1.17.43Z"/><path class="cls-1" d="M993.39,56.47a1.64,1.64,0,0,1-1.16-2.8l24.27-24.25a1.64,1.64,0,0,0,0-2.3L992.24,2.83a1.66,1.66,0,0,1,0-2.34,1.64,1.64,0,0,1,2.33,0l24.26,24.31a4.91,4.91,0,0,1,0,6.93L994.56,56a1.59,1.59,0,0,1-1.17.43Z"/></g></g></svg>