<svg xmlns="http://www.w3.org/2000/svg" viewBox="0 0 554.58 57.12"><defs><style>.cls-1{fill:#fff;}</style></defs><title>04</title><g id="图层_2" data-name="图层 2"><g id="图层_1-2" data-name="图层 1"><path class="cls-1" d="M0,26.16V21.4H17.36q-1-1.66-3.57-5.47c-.63-1.11-1.11-1.9-1.43-2.38l5.23-1.66c.48.64,1.11,1.59,1.91,2.85q2.61,4.05,3.8,5.71l-1.9.95H33.76l2.86-4.28A37.82,37.82,0,0,1,40,11.89l5.23,1.66c-.32.48-.8,1.19-1.43,2.15-1.59,2.53-2.85,4.43-3.8,5.7H57.06v4.76H31.86v7.17H54.21v4.76H31.86v9.75q.48,8.55-8.32,8.32-3.33.24-7.37.24c-.32-1.75-.71-3.57-1.19-5.47,2.38.15,4.67.23,6.89.23,3.17.16,4.68-1.18,4.52-4v-9H2.85V33.33H26.39V26.16ZM4,54A21.46,21.46,0,0,1,2.6,52.34,10,10,0,0,0,.46,49.72a96.56,96.56,0,0,0,14.27-10l3.8,3.81q-4,3.33-12.12,8.8ZM2.84,11.43V6.67H26.62L24.48.73,30.66,0A36.53,36.53,0,0,1,32.8,6.67H54.2v4.76ZM52.06,53.76q-4.53-3.09-15-9.51l3.33-4q7.13,4.27,15,9.75Z"/><path class="cls-1" d="M93.68,5.5l-1.42,35h-5L86.08,5.5ZM93.21,54h-6.9V47.11h6.9Z"/><path class="cls-1" d="M162.65,28.56a108.63,108.63,0,0,0-9.74-8.32l3.8-3.81c1.43,1.11,3.65,2.86,6.66,5.23l3.33,2.62Zm-2.37,28.06-5.71-1.91a177.27,177.27,0,0,0,6.89-21.4q2.63,1,5.47,2.14Q163.84,44.74,160.28,56.62Zm3.8-43.52q-2.61-2.61-8.08-7.37a5.55,5.55,0,0,0-1.19-1l3.8-3.8c1.11,1,2.77,2.3,5,4q3.09,2.61,4.75,4Zm7.85-3.79a47.15,47.15,0,0,0-.72-5q20.46-.48,36.38-1.66l.72,5q-7.84.24-15.7.71v9.51h18.07v5H192.61v9.24h14.25V56.88h-5.47V53.55H178.13v3.33h-5.47V32.11h14.25V22.87h-17.6v-5h17.6v-9Zm6.2,27.56V49h23.26V36.87Z"/><path class="cls-1" d="M230.2,25.73v-5h27.58v5H245.42q-4.29,10.46-8.09,19a43.88,43.88,0,0,0,5.23-.48c3.65-.15,6.34-.31,8.09-.47q-.72-1.9-2.14-5.23-1.44-3.57-2.14-5.23l4.51-1.67q2.63,5.71,7.37,16.88,6.42-8.31,6.66-28.07a7,7,0,0,1,.24-1.67V17.15h-7.37v-5h7.37q.24-5.7.24-11.89h5.47q-.24,5.48-.24,11.89h15.22q-.48,27.35-1,34.72-.22,8.55-8.08,8.79h-8.08a41.74,41.74,0,0,0-1.19-5.46h7.13c3.33.15,4.91-1.35,4.76-4.52q.94-15,.95-28.53h-10v3.57q0,23.79-12.13,36.39c-.63-.31-1.58-.87-2.85-1.66L253.26,54q1.43-1.43,3.57-3.8a12.46,12.46,0,0,1,.95-1.19l-4.52.95a6,6,0,0,0-.71-1.43q-2.38.24-6.18.48l-9,.71a37.21,37.21,0,0,0-5,.72l-2.14-4.52a14.23,14.23,0,0,0,3.09-4,122.06,122.06,0,0,0,6.18-16.17Zm2.85-15.95v-5h22.59v5Z"/><path class="cls-1" d="M322.71,54.22q-10.47.24-10.23-9.27V16.42h5.95V24h33.31V8.8H311.08V3.57h46.61V29.26H318.43v14.5q-.48,6.18,5.94,5.7h25.44q6.9.48,7.61-5.47c.16-.79.4-2.06.71-3.8.16-1.59.32-2.77.48-3.57.79.32,1.9.72,3.33,1.19l2.14.71c-.32,2.86-.71,5.55-1.19,8.09q-1.42,8.09-11.18,7.61Z"/><path class="cls-1" d="M386.21,40.69l-1.9-4.52a14.38,14.38,0,0,0,3.56-3.33c.32-.48.95-1.35,1.91-2.62,1.9-2.53,3.32-4.59,4.28-6.18a77.14,77.14,0,0,0-9,.48L383.59,20a21.37,21.37,0,0,0,2.62-3.09Q391.67,7.4,395,0l5.23,1.66Q395.49,10.5,390,19.52a32.79,32.79,0,0,0,3.57-.23h3.33a69.72,69.72,0,0,0,3.57-6.19l4.75,2.14q-4.51,7.62-13.31,20l11.65-1.67c-.16,1.75-.24,3.33-.24,4.76A143.55,143.55,0,0,0,386.21,40.69Zm-1.67,12.6-1-5c1.59-.31,4.2-.71,7.85-1.18Q400,45.67,404,45a40.58,40.58,0,0,0-.24,5.23Q396.68,50.91,384.54,53.29ZM405,13.37v-5h15V.29h5.47V8.38H440.9v5H425.44v8.52H439v4.75H406.66V21.89H420V13.37Zm2.62,43.7V33.58H438V57.07h-5.47V53.55H412.84v3.52Zm5.23-18.74V49h19.73V38.33Z"/><path class="cls-1" d="M461.12,10.94v-5h25.44V0H492V5.94h25.44v5H492v6.44h20.45V36H494.17Q503,44.76,518,49.74a46,46,0,0,0-2.85,4.76Q499.17,48.56,492,39.76V57.12h-5.47V40q-7.85,9.51-23.06,15.69l-3.09-5.23A58.78,58.78,0,0,0,484.66,36H466.35V17.38h20.21V10.94Zm10.7,11.2V31h14.74V22.14Zm35.19,0H492V31h15Z"/><path class="cls-1" d="M554.58,5.5l-1.42,35h-5L547,5.5ZM554.11,54h-6.9V47.11h6.9Z"/></g></g></svg>