<svg xmlns="http://www.w3.org/2000/svg" viewBox="0 0 1310.37 59.57"><defs><style>.cls-1{fill:#fff;}</style></defs><title>出错022</title><g id="图层_2" data-name="图层 2"><g id="图层_1-2" data-name="图层 1"><path class="cls-1" d="M1248,59.57a2.38,2.38,0,0,1-2.09-1,1.33,1.33,0,0,1,.49-1.79l33.37-24.25a1.34,1.34,0,0,0,0-2.3L1246.45,5.93a1.36,1.36,0,0,1,0-2.34,2.92,2.92,0,0,1,3.22,0L1283,27.9c2.62,1.91,2.62,5,0,6.93l-33.34,24.31a2.76,2.76,0,0,1-1.62.43Z"/><path class="cls-1" d="M1273.44,59.57a2.38,2.38,0,0,1-2.09-1,1.33,1.33,0,0,1,.49-1.79l33.37-24.25a1.34,1.34,0,0,0,0-2.3L1271.87,5.93a1.36,1.36,0,0,1,0-2.34,2.92,2.92,0,0,1,3.22,0L1308.4,27.9c2.63,1.91,2.63,5,0,6.93l-33.34,24.31a2.76,2.76,0,0,1-1.62.43Z"/><path class="cls-1" d="M0,26.38V21.63H17.36q-1-1.66-3.57-5.47c-.63-1.11-1.11-1.9-1.43-2.38l5.23-1.66c.48.63,1.11,1.58,1.91,2.85q2.61,4.05,3.8,5.71l-1.9.95H33.76l2.86-4.28A37.2,37.2,0,0,1,40,12.12l5.23,1.66-1.43,2.14c-1.59,2.54-2.85,4.44-3.8,5.71H57.06v4.75H31.86v7.18H54.21v4.75H31.86v9.75q.48,8.56-8.32,8.32-3.33.24-7.37.24c-.32-1.74-.71-3.56-1.19-5.47,2.38.16,4.67.24,6.89.24q4.75.24,4.52-4v-9H2.85V33.56H26.39V26.38ZM4,54.23A20.23,20.23,0,0,1,2.6,52.56,9.72,9.72,0,0,0,.46,50,98.09,98.09,0,0,0,14.73,40l3.8,3.81q-4,3.33-12.12,8.79C5.29,53.36,4.5,53.91,4,54.23ZM2.84,11.65V6.9H26.62L24.48,1,30.66.24A36.53,36.53,0,0,1,32.8,6.9H54.2v4.75ZM52.06,54q-4.53-3.09-15-9.51l3.33-4q7.13,4.28,15,9.75Z"/><path class="cls-1" d="M93.68,5.72l-1.42,35h-5L86.08,5.72Zm-.47,48.51h-6.9v-6.9h6.9Z"/><path class="cls-1" d="M155.55,22.84a33.33,33.33,0,0,0-1.66-3.33,9.42,9.42,0,0,1-.95-1.9A61.36,61.36,0,0,0,165.78,0L171,1.92a78.78,78.78,0,0,1-5.23,8.56V35.21h-5.24V17.37C159,19.28,157.29,21.1,155.55,22.84ZM158.37,53l-5-2.14a64.09,64.09,0,0,0,5.71-13.08l5.23,1.67Q161.47,46.86,158.37,53ZM175,55.66q-7.6,0-7.6-7.13v-10h5.46V47.1q0,3.57,4.05,3.57h10q5.24.46,5.71-3.57a26.17,26.17,0,0,0,1-5.23,25.6,25.6,0,0,0,3.09,1.19l2.14.71a43.73,43.73,0,0,1-1.19,5.47,1.81,1.81,0,0,0-.24.71q-1.42,5.94-9,5.71Zm-2.15-23.07a26.75,26.75,0,0,0-4-3.33,85.49,85.49,0,0,0,10.22-11.41l4.52,2.85Q178.11,27.36,172.88,32.59Zm1-13.35a9.47,9.47,0,0,0-1.66-1.18c-1.12-1-2-1.67-2.62-2.14A62.2,62.2,0,0,0,179.77.22l5.47,1L183.82,4a9.65,9.65,0,0,0-1.19,2.14h25.91v5l-3.33,7.37a16.51,16.51,0,0,0-4.28-1.43,1.87,1.87,0,0,0-.71-.23l2.86-6H179.77A61.76,61.76,0,0,1,173.83,19.24Zm10.46,27.14a68.79,68.79,0,0,0-7.13-8.32l4-2.85q3.81,3.56,7.61,7.84ZM180.74,35c-.32-1.43-.71-3-1.19-4.76a35.71,35.71,0,0,0,4.76.24q3.8,0,3.57-3.09V14.28h5.23V28.07c.15,4.44-2.14,6.74-6.9,6.9Zm25.43-2.38c-1-1-2.3-2.38-4-4.28q-3.8-4.27-6.18-6.66l3.81-3.09q5.22,5.24,10.7,10.7Zm.23,18.55q-3.56-5.47-8.79-12.13l4.28-2.85q5.22,6.42,9.27,12.36Z"/><path class="cls-1" d="M245.89,54.44q-10.47.24-10.22-9.27V16.64h5.94v7.61h33.32V9H234.27V3.8h46.6V29.48H241.61V44q-.48,6.18,5.94,5.71H273q6.88.48,7.6-5.47c.16-.79.4-2.06.72-3.8.16-1.59.31-2.78.47-3.57.79.32,1.91.71,3.33,1.19l2.14.71c-.32,2.85-.71,5.55-1.19,8.08q-1.43,8.09-11.17,7.61Z"/><path class="cls-1" d="M329.6,20.23q-5.22-6.9-9-12.37a91.1,91.1,0,0,1-11.65,17.6,42.79,42.79,0,0,0-2.38-5.23A69.22,69.22,0,0,0,318.19.49l5.47.72a2.53,2.53,0,0,1-.48,1,9,9,0,0,1-.47,1.18q1.91,2.14,5.47,6.42,3.33,4.05,5.23,6.42Zm-5.7,36.4q-5.23-5.48-14.74-14.27L312.25,39q1.19,1,3.56,3.1Q318,44,319.14,45.22l6.42-11.65H308.68V28.81H331v5l-8.32,14.75,4.75,4.28Zm-3.09-29.75a69.14,69.14,0,0,0-4.76-8.08l3.8-2.38a3.56,3.56,0,0,0,.72.95,52.15,52.15,0,0,1,4.28,7.14Zm39.94,30q-4-3.8-11.17-10c-.8-.64-1.35-1.11-1.67-1.43q-2.85,5.94-14.5,12.36a12.41,12.41,0,0,1-1.19-1.42,35.47,35.47,0,0,0-2.38-2.86Q339.35,49,342.21,45q3.32-4.28,3.32-12.6V23.08h5v9.27a33.77,33.77,0,0,1-.95,8.56q6.89,5.72,14.74,12.13Zm-29-49V3.12h32.58V7.88H350.55l-1.67,7.35H362V42.58h-4.75V19.75H338.89v23.3h-4.75V15.23h9.27l1.43-7.35Z"/><path class="cls-1" d="M384.81,8.12V3.37h27.3V8.12h-2.86V40.7c.64-.16,1.43-.32,2.38-.48a10.34,10.34,0,0,1,2.38-.47v5l-4.76.71V57.34h-5V46.4a25.67,25.67,0,0,1-2.84.48q-6.65.94-17.09,2.61l-.71-5.23,4.76-.47V8.12Zm8.56,0v8.33h10.89V8.12Zm0,12.61v8.5h10.89v-8.5Zm0,22.29a92.72,92.72,0,0,1,9.71-1.43,4.1,4.1,0,0,1,1.18-.23V33.51H393.37ZM438,56.39a76.49,76.49,0,0,1-11.41-10.94A105.2,105.2,0,0,1,414,57.34,33.94,33.94,0,0,0,411.89,54a15,15,0,0,0-1.19-1.43,53.88,53.88,0,0,0,12.84-11.65Q416.88,30.48,415,10.74h-1.19v-5h25v5q-2.38,19.5-9,30.19a47.5,47.5,0,0,0,11.65,10.7c-.32.48-.71,1.11-1.19,1.91Zm-4.51-45.65H420q2.14,16.4,6.66,25Q431.39,27.15,433.53,10.74Z"/><path class="cls-1" d="M462.58,42.33c-.64-1.58-1.35-3.41-2.14-5.47a61,61,0,0,0,19-19.73H462.58v-5H485.4V17.6A96.1,96.1,0,0,1,478,28.3v29h-5.47V34.25A102.2,102.2,0,0,1,462.58,42.33Zm12.81-31.14a22.39,22.39,0,0,0-1.66-2.61,70.38,70.38,0,0,0-3.81-6.19L474.68.25c.47.64,1.11,1.59,1.9,2.86l3.8,5.7ZM487.75,40a103.11,103.11,0,0,0-9.27-7.61l3.57-3.56a98.74,98.74,0,0,1,9.27,7.13Zm14.5,15.45q-8.56.24-8.32-8.56V1h5.71V45.9c-.16,3,1.26,4.44,4.28,4.28h2.85c3,.16,4.68-1.27,5-4.28A10.15,10.15,0,0,1,512,44q.48-5,.48-7.61a59.34,59.34,0,0,0,5.7,1.9,24.76,24.76,0,0,0-.47,3.09q-.48,5-1,7.37-1,6.66-9.28,6.66Z"/><path class="cls-1" d="M540.78,27.09a28.56,28.56,0,0,0-3.8-1.42,90.44,90.44,0,0,0,3.33-19.74l4.28.48a61.76,61.76,0,0,0-1,7.37h4.52V.46h5V13.78h5.23v5h-5.23V30.66L558.38,29a32.79,32.79,0,0,0,.47,5.23l-5.7,1.66v21.4h-5v-20l-10,3.33-.71-5.95q5-1.19,10.7-2.85V18.77h-5.47A69.48,69.48,0,0,1,540.78,27.09ZM560.53,25c-.48-.48-1.19-1.11-2.14-1.91l-1.67-1.66A61.34,61.34,0,0,0,567,.49l5,1.18a73,73,0,0,1-3.09,7.85h24q-.23,9.75-1,31.39c-.16,2.53-.23,4.2-.23,5q0,9.51-9.51,9.75H578.6c-1.9.16-3.33.24-4.28.24a40.34,40.34,0,0,0-1.19-5.47h7.61q5.7.46,5.94-5.71c0-.79.08-2.3.24-4.52q.72-21.15.71-25.44h-4q-1.67,30-19.73,41.37c-.32-.31-1-.95-2.14-1.9-1-.95-1.67-1.66-2.14-2.14q18.3-11.64,19.73-37.33h-4.52q-2.61,18.31-15,29.49a17.19,17.19,0,0,0-4-3.81,41.31,41.31,0,0,0,15-25.68h-4.28A87.15,87.15,0,0,1,560.53,25Z"/><path class="cls-1" d="M616.7,36.82V31.53h21.62v5.29Z"/><path class="cls-1" d="M660,23.32l-.24-5.47,7.14-.72V.49h5.47V16.42l10.22-1,.48,5.47-10.7.95V40.67a14.82,14.82,0,0,1,1.19-1q5.7-4.28,8.79-6.65A40.19,40.19,0,0,0,683.57,39q-7.37,5.48-11.65,9a23.59,23.59,0,0,1-3.33,2.86l-4-4a9.24,9.24,0,0,0,2.38-6.42V22.6ZM695,55.64a32.72,32.72,0,0,0-1.19-5.47h2.85c2.22.16,3.88.23,5,.23q6.18,0,6.18-6.18.71-15.93,1-34.95H696.38q0,6.9-.47,13.32-.24,24.24-14.74,34.71l-4.76-3.8q14.26-10,13.79-30.44.48-7.6.48-13.79h-9.51V3.8h33.52q-.24,20.45-1.19,41.61,0,10.23-10,10Q700,55.64,695,55.64Z"/><path class="cls-1" d="M741.34,27.82l-1.9-1.9c-1.11-1-1.9-1.67-2.38-2.14A77.75,77.75,0,0,0,752.28.47l5.7,1c-1.11,2.69-2.3,5.23-3.56,7.6h37.33q-.24,3.81-.72,14.51-.71,15.93-.95,20.45-.24,11.64-11.65,11.17-4.27.24-9.75.24a38.87,38.87,0,0,0-1.19-5.47q2.87.24,9.28.24,7.85.46,7.84-7.61,1-11.89,1.43-28.3h-7.37q-2.85,29.25-25.92,42.57c-.47-.48-1.19-1.27-2.14-2.38l-1.9-1.9q22.11-11.89,24.49-38.29h-8.56Q761.07,35,741.58,47.08a12.68,12.68,0,0,1-1.19-1.43,33.48,33.48,0,0,0-2.62-3.09q18.08-10.23,21.4-28.3h-7.84A107.09,107.09,0,0,1,741.34,27.82Z"/><path class="cls-1" d="M818.39,7.65l-.47-4.28q20.21,0,47.55-1.43l.95,4.28q-6.66.24-21.4.72v4.51h25.92V15.5H845v4.26h20V39.69H845v4.05h21.64v3.57H845V50.9h25.92v4H813.63v-4h25.92V47.31H817.92V43.74h21.63V39.69H819.83V19.76h19.72V15.5H813.87V11.45h25.68V7.17Q831,7.17,818.39,7.65Zm6.91,15.67v4.53h14.25V23.32Zm0,8.1v4.47h14.25V31.42Zm34.22-8.1H845v4.53h14.5ZM845,31.42v4.47h14.5V31.42Z"/><path class="cls-1" d="M892.59,20a47.87,47.87,0,0,0-2.14-5A47.55,47.55,0,0,0,904,0l6,.71q-1.2,1.91-2.62,3.81h39.46V8.8H904.24a36,36,0,0,1-3.8,4.26H941.8V32.84H898.53V15Q895.92,17.37,892.59,20Zm2.62,37.54A23.4,23.4,0,0,0,893.07,53a199,199,0,0,0,21.4-3.57A45.39,45.39,0,0,1,904.25,43,104.9,104.9,0,0,1,894,49.92a6.85,6.85,0,0,1-.71-1,33.48,33.48,0,0,0-2.62-3.09q10.93-5.48,17.12-13.08l5.71.71q-1.42,1.66-2.85,3.57h30.91v4.28a57.54,57.54,0,0,1-13.32,8.08,159.23,159.23,0,0,0,19.5,2.62c-.16.48-.48,1.27-1,2.38a17.63,17.63,0,0,1-1.19,2.38,143,143,0,0,1-24.49-5.24Q911.14,55.15,895.21,57.53ZM904,16.87v4.28h32.33V16.87Zm0,7.61V28.8h32.33V24.48Zm30.2,16.64h-25a47.62,47.62,0,0,0,11.65,6.18A86.92,86.92,0,0,0,934.2,41.12Z"/><path class="cls-1" d="M989.86,20.23q-5.24-6.9-9-12.37a90.18,90.18,0,0,1-11.65,17.6,41.41,41.41,0,0,0-2.37-5.23A69.45,69.45,0,0,0,978.45.49l5.47.72a2.53,2.53,0,0,1-.48,1A8.92,8.92,0,0,1,983,3.34c1.27,1.43,3.1,3.57,5.47,6.42s4,4.84,5.23,6.42Zm-5.71,36.4q-5.22-5.48-14.74-14.27L972.5,39q1.18,1,3.57,3.1c1.43,1.26,2.53,2.29,3.33,3.09l6.42-11.65H968.94V28.81h22.35v5L983,48.55l4.76,4.28Zm-3.09-29.75a67.71,67.71,0,0,0-4.75-8.08l3.8-2.38a3.73,3.73,0,0,0,.71.95,51.13,51.13,0,0,1,4.28,7.14Zm40,30q-4.05-3.8-11.18-10c-.79-.64-1.34-1.11-1.66-1.43q-2.85,5.94-14.51,12.36a13.69,13.69,0,0,1-1.18-1.42c-1.11-1.43-1.91-2.38-2.38-2.86Q999.61,49,1002.46,45q3.33-4.28,3.33-12.6V23.08h5v9.27a33.32,33.32,0,0,1-.95,8.56q6.9,5.72,14.74,12.13Zm-29-49V3.12h32.58V7.88h-13.8l-1.66,7.35h13.08V42.58h-4.76V19.75H999.15v23.3h-4.76V15.23h9.28l1.43-7.35Z"/><path class="cls-1" d="M1045.07,8.12V3.37h27.29V8.12h-2.85V40.7c.63-.16,1.43-.32,2.38-.48a10.34,10.34,0,0,1,2.38-.47v5l-4.76.71V57.34h-5V46.4a25.51,25.51,0,0,1-2.85.48q-6.63.94-17.08,2.61l-.71-5.23,4.75-.47V8.12Zm8.56,0v8.33h10.89V8.12Zm0,12.61v8.5h10.89v-8.5Zm0,22.29a92.43,92.43,0,0,1,9.7-1.43,4.16,4.16,0,0,1,1.19-.23V33.51h-10.89Zm44.67,13.37a76.49,76.49,0,0,1-11.41-10.94,106,106,0,0,1-12.6,11.89,34.66,34.66,0,0,0-2.15-3.33,15.22,15.22,0,0,0-1.18-1.43,53.88,53.88,0,0,0,12.84-11.65q-6.66-10.45-8.56-30.19h-1.19v-5h25v5q-2.37,19.5-9,30.19a47.32,47.32,0,0,0,11.65,10.7c-.32.48-.71,1.11-1.19,1.91Zm-4.52-45.65h-13.55q2.14,16.4,6.66,25Q1091.65,27.15,1093.78,10.74Z"/><path class="cls-1" d="M1123.07,51.39V5.74h13.77v44.7h-4V45.92h-5.45v5.47Zm4.28-40.89V41.17h5.45V10.5Zm12.8.47c-.16-1-.4-2.14-.71-3.57a3.84,3.84,0,0,1-.24-1.19q9.27-.94,17.12-2.38l1.19,4.76-6,.95V18.1h8.56V10q-.24-6-.24-9.28h5q0,8.57.24,17.36H1178v5h-12.61q.48,8.09.72,13.56a46.23,46.23,0,0,0,7.6-10.23l4,3.09A71.3,71.3,0,0,1,1167,43.07v.23q1.67,7.86,4.75,8.09c1,0,1.59-.8,1.9-2.38l.72-4.28c.16-1.58.32-2.77.47-3.57a12,12,0,0,1,2.38,1l1.43.71a74.46,74.46,0,0,1-1.19,8.08q-1.18,6.18-5.94,6-6,.22-8.8-10a37.08,37.08,0,0,1-7.61,5,10.35,10.35,0,0,0-1.9-2.37,9.71,9.71,0,0,0-1.19-1.67,66.07,66.07,0,0,0,9.75-6.66,129.29,129.29,0,0,1-1.43-18.07h-8.8v9l6.18-1.43a19.08,19.08,0,0,0,.24,2.38V35.7l-6.42,1.42V50q.24,6.42-6.42,6.42h-5.47a40,40,0,0,0-1-4,3.84,3.84,0,0,1-.23-1.19h4.75q3.57.24,3.33-2.38V38.31L1139.44,40l-1.19-5.24,8.32-1.66v-10H1139v-5h7.61V10.25Q1143.72,10.49,1140.15,11Zm33.54,2.84-2.62-2.62a63.49,63.49,0,0,0-4.75-4.75l3.33-2.86q1.66,1.43,5,4.52a27.07,27.07,0,0,0,2.62,2.38Z"/><path class="cls-1" d="M1214.84,5.72l-1.42,35h-5l-1.19-34.95Zm-.47,48.51h-6.9v-6.9h6.9Z"/></g></g></svg>