<svg xmlns="http://www.w3.org/2000/svg" viewBox="0 0 1428.68 72.78"><defs><style>.cls-1,.cls-3,.cls-6{font-size:60.87px;font-family:ATC-4a4c5220454d455249432052454720436f6d706f2032303135;}.cls-1,.cls-3,.cls-6,.cls-7{fill:#fff;}.cls-1{letter-spacing:0.26em;}.cls-2{letter-spacing:0.26em;}.cls-3{letter-spacing:0.22em;}.cls-4{letter-spacing:0.15em;}.cls-5{letter-spacing:0.2em;}.cls-6{letter-spacing:0.26em;}</style></defs><title>055_1</title><g id="图层_2" data-name="图层 2"><g id="图层_1-2" data-name="图层 1"><text class="cls-1" transform="translate(0 52.31)">欢<tspan class="cls-2" x="76.82" y="0">迎</tspan><tspan x="153.63" y="0">某</tspan><tspan x="230.45" y="0">先</tspan><tspan class="cls-2" x="307.27" y="0">生</tspan><tspan x="384.08" y="0">开</tspan><tspan class="cls-2" x="460.9" y="0">启</tspan></text><text class="cls-3" transform="translate(537.72 53.53) scale(1.18)">JLR S<tspan class="cls-4" x="217.29" y="0">P</tspan><tspan class="cls-5" x="263.91" y="0">A</tspan><tspan x="316.97" y="0">CE</tspan></text><text class="cls-6" transform="translate(1031.34 52.31)">体<tspan class="cls-2" x="76.82" y="0">验</tspan><tspan class="cls-2" x="153.63" y="0">之</tspan><tspan class="cls-2" x="230.45" y="0">旅</tspan><tspan x="307.27" y="0">！</tspan></text><path class="cls-7" d="M1383.32,62.62a1.62,1.62,0,0,1-1.52-1,1.65,1.65,0,0,1,.36-1.79l24.27-24.25a1.65,1.65,0,0,0,0-2.31L1382.17,9a1.66,1.66,0,0,1,2.33-2.36L1408.75,31a4.91,4.91,0,0,1,0,6.93L1384.5,62.2a1.65,1.65,0,0,1-1.18.42Z"/><path class="cls-7" d="M1401.81,62.62a1.63,1.63,0,0,1-1.16-2.79l24.27-24.25a1.65,1.65,0,0,0,0-2.31L1400.67,9A1.65,1.65,0,1,1,1403,6.63L1427.24,31a4.91,4.91,0,0,1,0,6.93L1403,62.2a1.65,1.65,0,0,1-1.18.42Z"/></g></g></svg>