<svg xmlns="http://www.w3.org/2000/svg" viewBox="0 0 708.22 57.51"><defs><style>.cls-1{fill:#fff;}</style></defs><title>03</title><g id="图层_2" data-name="图层 2"><g id="图层_1-2" data-name="图层 1"><path class="cls-1" d="M0,26.37V21.61H17.36q-1-1.66-3.57-5.47c-.63-1.1-1.11-1.9-1.43-2.37l5.23-1.67c.48.64,1.11,1.59,1.91,2.86q2.61,4,3.8,5.7l-1.9.95H33.76l2.86-4.28A37.82,37.82,0,0,1,40,12.1l5.23,1.67-1.43,2.14c-1.59,2.53-2.85,4.43-3.8,5.7H57.06v4.76H31.86v7.17H54.21V38.3H31.86v9.75q.48,8.55-8.32,8.32-3.33.24-7.37.24c-.32-1.75-.71-3.57-1.19-5.47,2.38.16,4.67.24,6.89.24,3.17.15,4.68-1.19,4.52-4.05v-9H2.85V33.54H26.39V26.37ZM4,54.21A21.46,21.46,0,0,1,2.6,52.55,10,10,0,0,0,.46,49.93,97.22,97.22,0,0,0,14.73,40l3.8,3.8q-4,3.33-12.12,8.8ZM2.84,11.64V6.88H26.62L24.48.94,30.66.22A36.53,36.53,0,0,1,32.8,6.88H54.2v4.76ZM52.06,54q-4.53-3.09-15-9.51l3.33-4q7.13,4.28,15,9.75Z"/><path class="cls-1" d="M93.68,5.71,92.26,40.66h-5L86.08,5.71Zm-.47,48.5h-6.9V47.32h6.9Z"/><path class="cls-1" d="M155.55,22.83a31.31,31.31,0,0,0-1.66-3.33,9.69,9.69,0,0,1-.95-1.9A61.4,61.4,0,0,0,165.78,0L171,1.9a77.83,77.83,0,0,1-5.23,8.56V35.19h-5.24V17.36C159,19.26,157.29,21.08,155.55,22.83ZM158.37,53l-5-2.14a64.25,64.25,0,0,0,5.71-13.07l5.23,1.66Q161.47,46.84,158.37,53ZM175,55.64q-7.6,0-7.6-7.13v-10h5.46v8.56q0,3.57,4.05,3.57h10q5.24.48,5.71-3.57a26,26,0,0,0,1-5.23A24,24,0,0,0,196.67,43l2.14.71a43.36,43.36,0,0,1-1.19,5.47,1.84,1.84,0,0,0-.24.72q-1.42,5.94-9,5.7Zm-2.15-23.07a27.29,27.29,0,0,0-4-3.32,85.64,85.64,0,0,0,10.22-11.42l4.52,2.86Q178.11,27.35,172.88,32.57Zm1-13.34A9.4,9.4,0,0,0,172.17,18c-1.12-.95-2-1.66-2.62-2.14A62.32,62.32,0,0,0,179.77.21l5.47,1L183.82,4a9.87,9.87,0,0,0-1.19,2.14h25.91v5l-3.33,7.38a15.77,15.77,0,0,0-4.28-1.43,1.76,1.76,0,0,0-.71-.24l2.86-5.94H179.77A62.4,62.4,0,0,1,173.83,19.23Zm10.46,27.14A68.86,68.86,0,0,0,177.16,38l4-2.85Q185,38.76,188.81,43ZM180.74,35c-.32-1.42-.71-3-1.19-4.75a36,36,0,0,0,4.76.23q3.8,0,3.57-3.09V14.27h5.23V28.06c.15,4.44-2.14,6.73-6.9,6.89Zm25.43-2.38c-1-.95-2.3-2.37-4-4.28q-3.8-4.27-6.18-6.65l3.81-3.09,10.7,10.7Zm.23,18.55q-3.56-5.48-8.79-12.13l4.28-2.85q5.22,6.42,9.27,12.36Z"/><path class="cls-1" d="M232.31,56.56V10h6.44c.16-.63.39-1.5.71-2.61a40.15,40.15,0,0,0,1.67-6.9l6,1q-1.2,4.29-2.62,8.56h10.72v46.1H250V51.57H237.78v5Zm5.47-41.34V28.31H250V15.22Zm0,18.32V47.05H250V33.54Zm26.66,22.58a28.72,28.72,0,0,0-1.19-5.71q3.09.24,9.27.24,6.66.48,6.66-5.94.48-5.24.71-22.35.24-5,.24-7.14H265.86q-.94,2.14-3.09,6.19l-1.42,2.85q-2.14-1.43-4.76-2.85A100,100,0,0,0,265.39.48l5.47,1.19c-.32,1-.8,2.3-1.43,4C268.8,7.61,268.32,9,268,10h17.6q0,15.23-1,35.67,0,10.22-10.23,10.46Zm5.47-16.41q-1.2-1.66-3.57-5-3.33-5-5.23-7.6l4.28-2.86q1.67,2.38,5,6.66,2.85,3.57,4.28,5.71Z"/><path class="cls-1" d="M308,50.89V45.42h55.4v5.47Zm4.28-37.08V7.87h46.84v5.94Z"/><path class="cls-1" d="M385.26,24.73l-1.67-5a10.77,10.77,0,0,0,2.86-3.09A96.37,96.37,0,0,0,395.24.24l5.24,1.9Q394.06,13.32,390,19.5l6.42-.24q1.9-3.33,3.33-6.42l4.76,2.38Q397.14,27.34,391.92,35l10.7-.71a20.61,20.61,0,0,0-.48,4.52,149.27,149.27,0,0,0-15.69,1.9l-1.67-4.76.48-.47a11.12,11.12,0,0,0,3.33-3.33,23.88,23.88,0,0,0,1.9-3.33c1.43-2.06,2.46-3.64,3.09-4.76-2.54.16-5.15.4-7.85.72ZM384.54,53l-.71-4.75q12.14-1.67,19-2.86v5Q392.16,51.6,384.54,53Zm18.79-24A19.28,19.28,0,0,0,401,23.8,69.66,69.66,0,0,0,412.37.5l5.71,1c-.31.79-.79,2-1.42,3.56q-.72,1.67-2.38,6H425.7q-.94-2.62-3.33-8.32-.48-.48-.48-.72l5-1.19q1.91,4.05,4.05,9.28l-4.05,1h13.56v4.51H429v8.09h10.7v4.52H429V36.4h10.7v4.52H429v8.56h12.12v4H412.84v3.81h-5.47v-34a45.55,45.55,0,0,1-3.09,4.52A5,5,0,0,0,403.33,29Zm9.51-13.56v8.09H424V15.47Zm0,12.61V36.4H424V28.08Zm0,12.84v8.56H424V40.92Z"/><path class="cls-1" d="M462.05,9.75V5.24h21.67V9.75h-8.33a64.57,64.57,0,0,1-4.53,12.83h11.2V54.47h-4.52V50.66h-6.93v4.76h-5V31.63a41.42,41.42,0,0,1-3.57,5c-.47-1.9-1-4-1.66-6.18a57.25,57.25,0,0,0,9.52-20.7Zm8.56,17.35V46.62h6.93V27.1ZM484.66,44V39H507v5Zm13.08,12.31c-.16-.8-.4-2-.71-3.57a16.12,16.12,0,0,0-.48-1.9c1.9.16,4.76.24,8.56.24,3.17.15,4.84-1.19,5-4.05q.48-7.12.72-15.45H487l1.9-20.21h5.23l-1.42,15.22h12.12l1.91-18.08H486.33v-5h26.39l-2.38,23.07h5.95q-.24,4.28-.48,12.6-.48,5.94-.48,8.56,0,8.55-9.51,8.56Z"/><path class="cls-1" d="M542.46,9.5V4.27H590V9.5h-21.4q-.48,6.9-1.19,12.61h26.87v5.23H566.23q-3.56,19-24.49,30l-4-4.51q19.5-10.23,22.59-25.44H538.18V22.11h23.3q.71-5.71,1.19-12.61Zm33.07,45.9q-9,.24-8.8-8.32v-19h5.71V45.89c-.32,3.17,1.34,4.67,5,4.52h5.7q5,0,5.24-4.28c.15-1,.31-2.54.47-4.76a19.08,19.08,0,0,0,.24-2.38l2.14.72c.79.31,2,.71,3.57,1.19q-.72,5.7-1.19,8.32-1.2,6.42-9.28,6.18Z"/><path class="cls-1" d="M638.53,52.72l-7.6-7.6q-4.29,5.22-14.27,12.12c-.32-.47-.95-1.58-1.9-3.33-.48-.79-.8-1.34-1-1.66a42.8,42.8,0,0,0,13.55-10.7Q624.51,38.22,619,33l3.56-3.33L630.45,37a79.78,79.78,0,0,0,4.76-9l4.51,2.37c-.16.32-.39.88-.71,1.67a69.81,69.81,0,0,1-5,8.8l8.32,8.32ZM617.37,31.33,614,27.76a67.37,67.37,0,0,0,9.75-11.18l4,2.62A108.18,108.18,0,0,1,617.37,31.33ZM615.47,14V9.2h13.08c-.32-.8-.87-2.15-1.67-4-.79-1.74-1.34-3-1.66-3.8L630.69.16c.31.63.79,1.74,1.42,3.33a39.58,39.58,0,0,1,2.14,5.71H644V14Zm25.2,15.71A115.38,115.38,0,0,0,631.4,19.2L635,16.35a103.76,103.76,0,0,1,9.27,10Zm2.62,27.85-3.8-4.28q9.51-5.94,14-11.89a48.43,48.43,0,0,1-5.94-16.88c-.16.32-.48.87-1,1.66-.48.64-.87,1.19-1.19,1.67Q643,24.22,642.34,23a71.61,71.61,0,0,0,9-22.59l5.23.72a45.15,45.15,0,0,1-2.14,7.13c-.31,1.11-.55,2-.71,2.62h17.6v5.23h-4.28q-2.15,16.39-7.37,25.44A38.11,38.11,0,0,0,672.06,51.8a11.68,11.68,0,0,1-.95,1.43,34.6,34.6,0,0,1-2.38,3.56q-8.33-5.94-12.13-10.7Q652.09,51.57,643.29,57.51Zm8.32-41.37-.47,1.18q1.67,12.13,5.46,19.26,4-7.6,5.47-20.44Z"/><path class="cls-1" d="M708.22,5.71l-1.43,34.95h-5L700.61,5.71Zm-.48,48.5h-6.89V47.32h6.89Z"/></g></g></svg>