<svg xmlns="http://www.w3.org/2000/svg" viewBox="0 0 477.77 57.59"><defs><style>.cls-1{fill:#fff;}</style></defs><title>01</title><g id="图层_2" data-name="图层 2"><g id="图层_1-2" data-name="图层 1"><path class="cls-1" d="M0,26.16V21.41H17.36c-.64-1.11-1.83-2.94-3.57-5.47-.63-1.11-1.11-1.9-1.43-2.38l5.23-1.67c.48.64,1.11,1.59,1.91,2.86,1.74,2.69,3,4.6,3.8,5.7l-1.9,1H33.76l2.86-4.28A38.1,38.1,0,0,1,40,11.89l5.23,1.67L43.75,15.7c-1.59,2.54-2.85,4.44-3.8,5.71H57.06v4.75H31.86v7.18H54.21v4.75H31.86v9.75q.48,8.56-8.32,8.32-3.33.24-7.37.24c-.32-1.74-.71-3.57-1.19-5.47,2.38.16,4.67.24,6.89.24q4.75.24,4.52-4v-9H2.85V33.34H26.39V26.16ZM4,54A19.66,19.66,0,0,1,2.6,52.34,10,10,0,0,0,.46,49.72a97.22,97.22,0,0,0,14.27-10l3.8,3.8q-4,3.33-12.12,8.8C5.29,53.13,4.5,53.69,4,54ZM2.84,11.43V6.68H26.62L24.48.73,30.66,0A36.53,36.53,0,0,1,32.8,6.68H54.2v4.75ZM52.06,53.77q-4.53-3.09-15-9.51l3.33-4q7.13,4.29,15,9.75Z"/><path class="cls-1" d="M93.68,5.5l-1.42,35h-5L86.08,5.5ZM93.21,54h-6.9V47.11h6.9Z"/><path class="cls-1" d="M156.71,56.59V3.33h50.64V48q.22,8.09-7.37,8.09-3.1.23-9,.23v-.71a43.47,43.47,0,0,0-.95-4.76c.79,0,2.06.08,3.8.24h3.57q4.75.24,4.52-3.8v-39h-39.7V56.59Zm39.23-43.24,4.52,1.9Q199,18.58,195.7,25.47c-.95,2.22-1.66,3.89-2.14,5q3.57,6.43,6.9,13.32l-4.52,2.62q-2.37-5.48-5-10.47-1,1.91-2.85,5.71-2.15,4.05-3.33,6.18L180.25,45q2.61-4,6.66-11.89a15.52,15.52,0,0,1,1.19-2.38,126.85,126.85,0,0,0-6.66-12.12,100.9,100.9,0,0,1-5.23,11.17l5.7,11.18-4.51,2.61q-1-1.9-2.62-5.94a16.51,16.51,0,0,0-1.19-2.38Q170,41.88,166.7,47.35a13.37,13.37,0,0,0-1.91-1.43l-2.14-1.43Q166.94,37.6,171,30q-1.2-2.37-3.57-7.13-2.61-4.75-3.8-7.14l4-2.37c.47.79,1.11,1.9,1.9,3.32s2.14,4,4,7.85q2.85-5.7,5-11.17l4.52,1.9-.24.47,1.91-1.18A22.62,22.62,0,0,1,186,16.67a87.42,87.42,0,0,1,4.75,8.56q1.42-2.85,3.8-8.32C195.15,15.33,195.62,14.14,195.94,13.35Z"/><path class="cls-1" d="M231.39,24.28l-1.43-5A14.28,14.28,0,0,0,232.81,16,97.18,97.18,0,0,0,241.13,0L246.6,1.7a193.19,193.19,0,0,1-10.46,17.35l6.9-.24a25.47,25.47,0,0,0,2.38-4c.79-1.27,1.34-2.22,1.66-2.85l4.75,2.38Q248,20.48,239.47,32.84a8.72,8.72,0,0,1-1.19,1.67h1.43q6.42-.48,9.27-.95v2.37a14.87,14.87,0,0,0-.24,2.38c-.79,0-2,.08-3.56.24-3.65.32-6.26.63-7.85,1q-1.43.24-3.57.48c.48,0,.16.08-.95.23l-1.9-5a12.71,12.71,0,0,0,3.57-3.33l.24-.24q.94-1.66,3.09-4.75a36.08,36.08,0,0,0,2.37-3.33,19.48,19.48,0,0,0-2.61.24A28.82,28.82,0,0,0,231.39,24.28Zm-.48,29-.95-5q2.85-.24,9.27-1.19,7.38-.95,10.7-1.43v2.38a19.08,19.08,0,0,0-.23,2.14l-4.28.71Q240.65,51.63,230.91,53.29Zm55.4-20q-10.94-2.85-17.12-6.66A81.37,81.37,0,0,1,251.12,34a13,13,0,0,0-1.42-3.33c-.32-.79-.56-1.34-.72-1.66a69.62,69.62,0,0,0,15.93-5.71,33.67,33.67,0,0,1-6.42-7.61c-1.58,1.91-3.25,3.81-5,5.71l-3.09-4.28A57.76,57.76,0,0,0,262.06,0l5.47,1c-.8,1.59-1.67,3.25-2.62,5h19.74v5A53,53,0,0,1,274,23.54a56.11,56.11,0,0,0,14.26,4.52A35.06,35.06,0,0,0,286.31,33.29ZM254.47,57.08V34.73h29.21V57.08h-5.47V53.74H259.7v3.34Zm5.23-17.83V49.47h18.51V39.25Zm19-28.55H262.06l-.48.71a33.68,33.68,0,0,0,7.85,9A39.19,39.19,0,0,0,278.7,10.7Z"/><path class="cls-1" d="M345,56.88V43.33H326.5q-.48,9-12.13,14.26l-2.14-2.14a20,20,0,0,1-2.38-1.9Q320.56,49.28,321,43.33H307V38.57h14.27q.24-3.09.24-5.94h5.7L327,38.57H345V32.63h5.71v5.94h13.32v4.76H350.75V56.88ZM321.29,30.24q-8.32.48-8.08-8.32V2.65h43V19H318.68v2.39q-.24,4.53,4.51,4.29H352q5.24.24,5.71-3.56a35.71,35.71,0,0,0,.95-5.47,28,28,0,0,1,2.85.95,15.62,15.62,0,0,1,2.62.95c-.63,2.38-1.19,4.6-1.66,6.66q-1.2,5.24-9.28,5ZM318.68,7.17v7.35h32.08V7.17Z"/><path class="cls-1" d="M385.76,20.49V9.55h12.11a11.84,11.84,0,0,0-1.18-1Q392.88,5,390.75,3.37L396,1.46c.8.64,2.14,1.83,4,3.57q2.85,2.38,4,3.57l-2.14,1h7.84V.28h5.71V9.55h7.37l-1.9-1q3.81-3.09,8.09-6.9l5.24,1.67c-1.43,1.42-3.41,3.17-5.95,5.23a5.32,5.32,0,0,1-1.19,1H439.5V20.49h-5.71V14.05H391.23v6.44Zm36.85,32.78a39.22,39.22,0,0,0-1.19-4.52,48.8,48.8,0,0,0,5.94.24q3.81.24,3.57-3.09V41.38H415.45V57.07h-5.94V41.38H394.28V53h-5.47V36.86h20.7V32.13H393.8V18.6h37.61V32.13h-16v4.73H436.4v9.75c.15,4.28-2.14,6.5-6.9,6.66ZM399.27,22.64v5.45h26.67V22.64Z"/><path class="cls-1" d="M477.77,5.5l-1.43,35h-5L470.16,5.5ZM477.29,54H470.4V47.11h6.89Z"/></g></g></svg>