<svg xmlns="http://www.w3.org/2000/svg" viewBox="0 0 1160.76 57.53"><defs><style>.cls-1{fill:#fff;}</style></defs><title>05</title><g id="图层_2" data-name="图层 2"><g id="图层_1-2" data-name="图层 1"><path class="cls-1" d="M0,26.38V21.63H17.36q-1-1.66-3.57-5.47c-.63-1.11-1.11-1.9-1.43-2.38l5.23-1.66c.48.63,1.11,1.58,1.91,2.85q2.61,4.05,3.8,5.71l-1.9.95H33.76l2.86-4.28A37.2,37.2,0,0,1,40,12.12l5.23,1.66-1.43,2.14c-1.59,2.54-2.85,4.44-3.8,5.71H57.06v4.75H31.86v7.18H54.21v4.75H31.86v9.75q.48,8.56-8.32,8.32-3.33.24-7.37.24c-.32-1.74-.71-3.56-1.19-5.47,2.38.16,4.67.24,6.89.24q4.75.24,4.52-4v-9H2.85V33.56H26.39V26.38ZM4,54.23A20.23,20.23,0,0,1,2.6,52.56,9.72,9.72,0,0,0,.46,50,98.09,98.09,0,0,0,14.73,40l3.8,3.81q-4,3.33-12.12,8.79C5.29,53.36,4.5,53.91,4,54.23ZM2.84,11.65V6.9H26.62L24.48,1,30.66.24A36.53,36.53,0,0,1,32.8,6.9H54.2v4.75ZM52.06,54q-4.53-3.09-15-9.51l3.33-4q7.13,4.28,15,9.75Z"/><path class="cls-1" d="M93.68,5.72l-1.42,35h-5L86.08,5.72Zm-.47,48.51h-6.9v-6.9h6.9Z"/><path class="cls-1" d="M155.55,22.84a33.33,33.33,0,0,0-1.66-3.33,9.42,9.42,0,0,1-.95-1.9A61.36,61.36,0,0,0,165.78,0L171,1.92a78.78,78.78,0,0,1-5.23,8.56V35.21h-5.24V17.37C159,19.28,157.29,21.1,155.55,22.84ZM158.37,53l-5-2.14a64.09,64.09,0,0,0,5.71-13.08l5.23,1.67Q161.47,46.86,158.37,53ZM175,55.66q-7.6,0-7.6-7.13v-10h5.46V47.1q0,3.57,4.05,3.57h10q5.24.46,5.71-3.57a26.17,26.17,0,0,0,1-5.23,25.6,25.6,0,0,0,3.09,1.19l2.14.71a43.73,43.73,0,0,1-1.19,5.47,1.81,1.81,0,0,0-.24.71q-1.42,5.94-9,5.71Zm-2.15-23.07a26.75,26.75,0,0,0-4-3.33,85.49,85.49,0,0,0,10.22-11.41l4.52,2.85Q178.11,27.36,172.88,32.59Zm1-13.35a9.47,9.47,0,0,0-1.66-1.18c-1.12-1-2-1.67-2.62-2.14A62.2,62.2,0,0,0,179.77.22l5.47,1L183.82,4a9.65,9.65,0,0,0-1.19,2.14h25.91v5l-3.33,7.37a16.51,16.51,0,0,0-4.28-1.43,1.87,1.87,0,0,0-.71-.23l2.86-6H179.77A61.76,61.76,0,0,1,173.83,19.24Zm10.46,27.14a68.79,68.79,0,0,0-7.13-8.32l4-2.85q3.81,3.56,7.61,7.84ZM180.74,35c-.32-1.43-.71-3-1.19-4.76a35.71,35.71,0,0,0,4.76.24q3.8,0,3.57-3.09V14.28h5.23V28.07c.15,4.44-2.14,6.74-6.9,6.9Zm25.43-2.38c-1-1-2.3-2.38-4-4.28q-3.8-4.27-6.18-6.66l3.81-3.09q5.22,5.24,10.7,10.7Zm.23,18.55q-3.56-5.47-8.79-12.13l4.28-2.85q5.22,6.42,9.27,12.36Z"/><path class="cls-1" d="M245.89,54.44q-10.47.24-10.22-9.27V16.64h5.94v7.61h33.32V9H234.27V3.8h46.6V29.48H241.61V44q-.48,6.18,5.94,5.71H273q6.88.48,7.6-5.47c.16-.79.4-2.06.72-3.8.16-1.59.31-2.78.47-3.57.79.32,1.91.71,3.33,1.19l2.14.71c-.32,2.85-.71,5.55-1.19,8.08q-1.43,8.09-11.17,7.61Z"/><path class="cls-1" d="M309.63,34.51c-.16-.31-.47-.87-.95-1.66-.95-1.59-1.59-2.7-1.9-3.33q18.54-5.23,27.82-15.7l5.46.47a20.94,20.94,0,0,0-2.85-2.14,12.18,12.18,0,0,0-1.19-.71A38.88,38.88,0,0,0,343.63.26l5.23.48a32.64,32.64,0,0,1-2.14,4.75h17.36V9.77H343.87a38.92,38.92,0,0,1-3.57,4.52h.24l-1.66,1.91a52.85,52.85,0,0,0,25.44,12.6l-.72,1.43c-.47.95-1,2.14-1.66,3.57a77.77,77.77,0,0,1-10.94-4v3.57H320.33V30Q315.82,32.13,309.63,34.51Zm.71-16.18-3.56-3.56A43.37,43.37,0,0,0,317.71.26l5.47.48a31.26,31.26,0,0,1-1.66,3.33c-.32.63-.56,1.11-.71,1.42h15.45V9.77H318A63.41,63.41,0,0,1,310.34,18.33Zm-1.42,36.36V50.41h34.71Q347.91,42.57,352,35l5.23,1.9Q355,40.91,351,47.56c-.79,1.27-1.35,2.22-1.66,2.85h13.08v4.28Zm10.93-5c-1.42-3.49-3.25-7.53-5.46-12.13l5-1.66q1.9,3.57,4.52,10a10.64,10.64,0,0,1,1,1.9Zm4.28-30.43c-1.9-2.22-3.64-4.13-5.23-5.71L322.47,11c.32.32.95.88,1.9,1.67a41.89,41.89,0,0,1,3.33,3.56Zm11.89,0a52.61,52.61,0,0,1-13.55,9.51H349.1A43,43,0,0,1,336,19.3ZM335.07,48c-.95-3.16-2.38-7.21-4.28-12.12l5-1.43q2.37,6,4.51,11.89Zm18.07-28.29-5.94-5.94L350.53,11c.79.64,1.82,1.59,3.09,2.86a19.72,19.72,0,0,1,3.09,2.85Z"/><path class="cls-1" d="M385.27,38.8v-5h12.61V27.38h5.46V33.8h12.37v5H403.34v9.75l13.8-1.67a35.71,35.71,0,0,0-.24,4.76q-14.5,1.43-32.1,3.56l-.95-5q3.79-.24,12.36-1-5.94.48,1.67-.24V38.8Zm-.73-30.25v-5h32.34v5H401.19q-4.51,6.65-8.56,12.36l15.45-.71c-.47-.8-1.11-1.82-1.9-3.09-.95-1.43-1.66-2.46-2.14-3.1l4-2.37q5.71,8.33,9,13.79l-4.28,2.85-2.14-3.8q-4.27.22-11.65.47-4.51.48-6.66.48a3.89,3.89,0,0,0-.95.24,20,20,0,0,0-4.52.71l-1.9-5a21.85,21.85,0,0,0,2.62-2.13A61.52,61.52,0,0,0,395,8.55Zm35.92,34.5V6.91h5.23V43.05Zm2.14,13.32a31.2,31.2,0,0,0-1-5.71c1.42.16,4,.24,7.84.24q3.57.24,3.57-3.57V.73h5.47v48c.15,4.91-2.22,7.37-7.14,7.37Q429,56.37,422.6,56.37Z"/><path class="cls-1" d="M463.06,36.82V31.53h21.62v5.29Z"/><path class="cls-1" d="M506.4,23.32l-.24-5.47,7.13-.72V.49h5.47V16.42l10.23-1,.47,5.47-10.7.95V40.67c.16-.15.56-.47,1.19-1q5.71-4.28,8.8-6.65A38.93,38.93,0,0,0,529.94,39q-7.38,5.48-11.65,9A23.59,23.59,0,0,1,515,50.9l-4-4a9.23,9.23,0,0,0,2.37-6.42V22.6Zm34.92,32.32a30.83,30.83,0,0,0-1.19-5.47H543c2.22.16,3.88.23,5,.23q6.18,0,6.18-6.18.72-15.93,1-34.95H542.75q0,6.9-.48,13.32Q542,46.83,527.53,57.3l-4.75-3.8q14.26-10,13.79-30.44.46-7.6.47-13.79h-9.51V3.8h33.53q-.24,20.45-1.19,41.61,0,10.23-10,10C547.51,55.56,544.65,55.64,541.32,55.64Z"/><path class="cls-1" d="M587.71,27.82l-1.91-1.9c-1.11-1-1.9-1.67-2.37-2.14A77.71,77.71,0,0,0,598.64.47l5.71,1A83.69,83.69,0,0,1,600.78,9h37.33q-.24,3.81-.71,14.51-.72,15.93-.95,20.45-.24,11.64-11.65,11.17-4.29.24-9.75.24a40.34,40.34,0,0,0-1.19-5.47q2.85.24,9.27.24,7.85.46,7.85-7.61.94-11.89,1.43-28.3H625q-2.87,29.25-25.92,42.57c-.48-.48-1.19-1.27-2.14-2.38l-1.9-1.9q22.11-11.89,24.49-38.29H611Q607.44,35,587.94,47.08a15.28,15.28,0,0,1-1.19-1.43,35.44,35.44,0,0,0-2.61-3.09q18.08-10.23,21.4-28.3h-7.85A106.9,106.9,0,0,1,587.71,27.82Z"/><path class="cls-1" d="M664.76,7.65l-.48-4.28q20.21,0,47.56-1.43l.95,4.28q-6.66.24-21.4.72v4.51H717.3V15.5H691.39v4.26h20V39.69h-20v4.05H713v3.57H691.39V50.9H717.3v4H660v-4h25.92V47.31H664.28V43.74h21.64V39.69H666.2V19.76h19.72V15.5H660.24V11.45h25.68V7.17Q677.36,7.17,664.76,7.65Zm6.91,15.67v4.53h14.25V23.32Zm0,8.1v4.47h14.25V31.42Zm34.21-8.1H691.39v4.53h14.49Zm-14.49,8.1v4.47h14.49V31.42Z"/><path class="cls-1" d="M739,20a50.1,50.1,0,0,0-2.14-5A47.66,47.66,0,0,0,750.37,0l5.94.71q-1.18,1.91-2.61,3.81h39.46V8.8H750.61a36.23,36.23,0,0,1-3.81,4.26h41.37V32.84H744.9V15Q742.29,17.37,739,20Zm2.62,37.54A23.4,23.4,0,0,0,739.44,53a199.4,199.4,0,0,0,21.4-3.57A45.71,45.71,0,0,1,750.61,43a103.46,103.46,0,0,1-10.22,6.9,7.57,7.57,0,0,1-.72-1,35.44,35.44,0,0,0-2.61-3.09Q748,40.4,754.18,32.8l5.7.71q-1.43,1.66-2.85,3.57h30.91v4.28a57.47,57.47,0,0,1-13.31,8.08,159.31,159.31,0,0,0,19.49,2.62c-.16.48-.47,1.27-1,2.38A15.52,15.52,0,0,1,792,56.82a143.4,143.4,0,0,1-24.49-5.24Q757.52,55.15,741.58,57.53Zm8.79-40.66v4.28H782.7V16.87Zm0,7.61V28.8H782.7V24.48Zm30.2,16.64h-25a47.62,47.62,0,0,0,11.65,6.18A86.92,86.92,0,0,0,780.57,41.12Z"/><path class="cls-1" d="M816.25,34.51c-.16-.31-.47-.87-1-1.66-.95-1.59-1.58-2.7-1.9-3.33q18.54-5.23,27.82-15.7l5.47.47a21.93,21.93,0,0,0-2.86-2.14,13.55,13.55,0,0,0-1.18-.71A39,39,0,0,0,850.25.26l5.24.48a33.75,33.75,0,0,1-2.14,4.75H870.7V9.77H850.49a39.86,39.86,0,0,1-3.56,4.52h.23L845.5,16.2a52.85,52.85,0,0,0,25.44,12.6l-.71,1.43c-.48.95-1,2.14-1.67,3.57a77.59,77.59,0,0,1-10.93-4v3.57H827V30Q822.44,32.13,816.25,34.51ZM817,18.33l-3.57-3.56A43.4,43.4,0,0,0,824.34.26l5.47.48a33.89,33.89,0,0,1-1.67,3.33c-.32.63-.55,1.11-.71,1.42h15.45V9.77h-18.3A64.1,64.1,0,0,1,817,18.33Zm-1.43,36.36V50.41h34.71q4.29-7.84,8.33-15.45l5.23,1.9q-2.14,4.05-6.18,10.7c-.8,1.27-1.35,2.22-1.67,2.85H869v4.28Zm10.94-5q-2.15-5.24-5.47-12.13l5-1.66q1.9,3.57,4.52,10a10,10,0,0,1,1,1.9Zm4.28-30.43c-1.9-2.22-3.65-4.13-5.23-5.71L829.09,11c.32.32.95.88,1.91,1.67a43,43,0,0,1,3.32,3.56Zm11.89,0a52.65,52.65,0,0,1-13.56,9.51h26.63A42.86,42.86,0,0,1,842.65,19.3Zm-1,28.74c-1-3.16-2.37-7.21-4.27-12.12l5-1.43q2.37,6,4.52,11.89Zm18.08-28.29-5.95-5.94L857.15,11c.79.64,1.82,1.59,3.09,2.86a18.84,18.84,0,0,1,3.09,2.85Z"/><path class="cls-1" d="M891.9,38.8v-5h12.6V27.38H910V33.8h12.36v5H910v9.75l13.79-1.67a35.71,35.71,0,0,0-.24,4.76q-14.5,1.43-32.1,3.56l-.95-5q3.81-.24,12.36-1-5.94.48,1.67-.24V38.8Zm-.73-30.25v-5H923.5v5H907.81q-4.51,6.65-8.56,12.36l15.46-.71c-.48-.8-1.11-1.82-1.91-3.09-.95-1.43-1.66-2.46-2.13-3.1l4-2.37q5.7,8.33,9,13.79l-4.28,2.85-2.14-3.8q-4.27.22-11.65.47-4.51.48-6.66.48a4,4,0,0,0-1,.24,19.84,19.84,0,0,0-4.51.71l-1.91-5a21.85,21.85,0,0,0,2.62-2.13,61.52,61.52,0,0,0,7.37-10.7Zm35.91,34.5V6.91h5.23V43.05Zm2.14,13.32a31.2,31.2,0,0,0-1-5.71q2.15.24,7.84.24,3.57.24,3.57-3.57V.73h5.47v48q.24,7.37-7.13,7.37Q935.64,56.37,929.22,56.37Z"/><path class="cls-1" d="M969.43,51.39V5.74h13.78v44.7h-4V45.92h-5.46v5.47Zm4.28-40.89V41.17h5.46V10.5Zm12.81.47q-.24-1.43-.72-3.57a3.79,3.79,0,0,1-.23-1.19q9.27-.94,17.12-2.38l1.18,4.76-5.94.95V18.1h8.56V10q-.24-6-.24-9.28h5q0,8.57.23,17.36h12.84v5h-12.6q.48,8.09.71,13.56A46.26,46.26,0,0,0,1020,26.42l4,3.09a70.52,70.52,0,0,1-10.7,13.56v.23q1.67,7.86,4.76,8.09c1,0,1.58-.8,1.9-2.38l.72-4.28c.15-1.58.31-2.77.47-3.57a12.25,12.25,0,0,1,2.38,1l1.43.71a77,77,0,0,1-1.19,8.08q-1.2,6.18-6,6-5.94.22-8.8-10a37,37,0,0,1-7.6,5,10.45,10.45,0,0,0-1.91-2.37,9.25,9.25,0,0,0-1.18-1.67,65.43,65.43,0,0,0,9.74-6.66,129.49,129.49,0,0,1-1.42-18.07h-8.8v9l6.18-1.43a19.08,19.08,0,0,0,.24,2.38V35.7l-6.42,1.42V50q.24,6.42-6.42,6.42H986c-.16-1-.47-2.3-.95-4a3.89,3.89,0,0,1-.24-1.19h4.76c2.38.16,3.48-.63,3.33-2.38V38.31L985.8,40l-1.19-5.24,8.33-1.66v-10h-7.61v-5h7.61V10.25Q990.08,10.49,986.52,11Zm33.54,2.84-2.62-2.62a65.46,65.46,0,0,0-4.75-4.75L1016,3.58q1.66,1.43,5,4.52a28.5,28.5,0,0,0,2.61,2.38Z"/><path class="cls-1" d="M1061.21,5.72l-1.43,35h-5L1053.6,5.72Zm-.48,48.51h-6.89v-6.9h6.89Z"/><path class="cls-1" d="M1115.4,56.57a1.64,1.64,0,0,1-1.16-2.8l24.27-24.25a1.62,1.62,0,0,0,0-2.3L1114.26,2.93a1.65,1.65,0,1,1,2.32-2.35l24.25,24.32a4.91,4.91,0,0,1,0,6.93l-24.25,24.31a1.6,1.6,0,0,1-1.18.43Z"/><path class="cls-1" d="M1133.89,56.57a1.64,1.64,0,0,1-1.16-2.8L1157,29.52a1.62,1.62,0,0,0,0-2.3L1132.75,2.93a1.65,1.65,0,1,1,2.32-2.35l24.25,24.32a4.89,4.89,0,0,1,0,6.93l-24.25,24.31a1.6,1.6,0,0,1-1.18.43Z"/></g></g></svg>