<svg xmlns="http://www.w3.org/2000/svg" viewBox="0 0 1427.49 60.51"><defs><style>.cls-1{fill:#fff;}</style></defs><title>出错的</title><g id="图层_2" data-name="图层 2"><g id="图层_1-2" data-name="图层 1"><path class="cls-1" d="M19.5,47.79,14,39A64.22,64.22,0,0,1,3.09,54,6.85,6.85,0,0,1,2.38,53,16.11,16.11,0,0,0,0,49.22,57.47,57.47,0,0,0,10.7,33.77l-9.51-15,4-2.62,7.85,11.65a61.56,61.56,0,0,0,3.33-16.4h-15V6.18H21.87v5.24Q20,25.21,16.64,33.29L24,44.7Zm1.9,9.3q-1.91-2.15-4-4.76,16.17-8.55,17.83-23.78a78.71,78.71,0,0,0,.71-11.17h5.47q0,1.19-.24,3.57v3.32q3.09,18.56,17.12,26.87a14,14,0,0,1-1.9,2.62,21,21,0,0,1-1.9,2.38Q42.32,47.82,39,34.74,36.38,47.58,21.4,57.09ZM52.31,24.72,48,23.3a3.89,3.89,0,0,0-1-.24l4.28-9.51H31.86a87,87,0,0,1-3.33,8.08c-.79,1.75-1.35,3.09-1.66,4a35.84,35.84,0,0,0-5-2.85A114.8,114.8,0,0,0,30.43.23l5.47,1a56.7,56.7,0,0,1-2.37,7.38h23.3v5.23Z"/><path class="cls-1" d="M79.45,56.57l-2.38-5.7c2.22-2.06,4.43-4.2,6.66-6.42V25.9h-6V20.43H89v24q3.32,6.18,12.36,6.18,10.46.24,33.53-.24a7.36,7.36,0,0,0-.48,1.66,15.87,15.87,0,0,0-1.19,3.57H113.45q-7.38,0-13.32-.24Q90.86,55.14,86.58,49A33.55,33.55,0,0,0,79.45,56.57Zm6.88-42.11a21.44,21.44,0,0,0-1.67-2.61C83.24,9.47,81.33,6.62,79,3.29L83.47.67q4.05,5.24,7.85,10.7Zm11.18,29-2.85-3.8a5.5,5.5,0,0,0,1.66-4V4.72A1.84,1.84,0,0,0,97,4.48,106.74,106.74,0,0,0,108.92.67L112,5a83.62,83.62,0,0,1-10.69,3.33V35.39c1.1-.48,2.77-1.27,5-2.38,1.43-.63,2.46-1.11,3.09-1.43,0,.64.08,1.67.24,3.1v2.14a72.94,72.94,0,0,0-9.28,4.75A12.79,12.79,0,0,0,98.22,43,3.22,3.22,0,0,0,97.51,43.47Zm14.94,5V5h19.78v30q.24,6.18-5.94,6.42c-1.9.16-3.8.24-5.71.24l-1.19-5a28.12,28.12,0,0,0,4.28.24q3.57,0,3.33-2.85V9.72h-9.55V48.47Z"/><path class="cls-1" d="M154.34,10.51V5.75h10.47V.28h5.46V5.75h25.21V.28H201V5.75h10.23v4.76H201V30.23H185.49v5.71H210.7V40.7H189.06a53.16,53.16,0,0,0,22.59,9.75c-.48.79-1.11,1.9-1.91,3.33-.47.79-.79,1.34-1,1.66q-15.45-5-23.3-12.36V57.34H180V43.08q-7.85,7.85-23.3,12.84a10.09,10.09,0,0,0-1.19-2.14c-.79-1.27-1.35-2.22-1.66-2.86q13.55-3.09,22.82-10.22H154.82V35.94H180V30.23H164.81V10.51Zm15.93,0V16h25.21V10.51Zm0,9.74v5.46h25.21V20.25Z"/><path class="cls-1" d="M238.75,24c-1.59-1-3.25-2-5-3.09q6.18-7.14,9.75-19.26l5.71,1.19C248.73,4,248.1,5.54,247.3,7.6a23.52,23.52,0,0,1-1.18,3.33h12.12V.23H264v10.7H284.4v5.23H264V26.64h24v5.47H269.67V46.86q-.24,3.57,3.8,3.33h5a3.79,3.79,0,0,0,4.28-3.09c.16-1,.31-2.85.47-5.7,0,.47.08-.08.24-1.67l5.23,1.9a55.5,55.5,0,0,1-.95,7.85q-1.67,6.18-8.8,5.94h-7.37q-7.85.24-7.61-7.13V32.11H253v2.14q0,15.93-18.78,22.82c-.95-1.42-2.06-3.17-3.33-5.23Q247.31,47.09,247.3,34v-1.9H231.61V26.64h26.63V16.16H243.5A54.7,54.7,0,0,1,238.75,24Z"/><path class="cls-1" d="M313.18,28.09c-.47-.32-1.34-.88-2.61-1.67-1.11-.79-1.9-1.34-2.38-1.66A65.79,65.79,0,0,0,319.6,3.12l5.71,1q-.72,1.9-1.9,5.47a15.66,15.66,0,0,0-1.19,2.85h12.84V0h5.71V12.39h21.4v5.23h-21.4V30.23h19.49v5.23H340.77V49.22h24.49v5H308.43v-5h26.63V35.46H314.37V30.23h20.69V17.62H319.6A87.33,87.33,0,0,1,313.18,28.09Z"/><path class="cls-1" d="M387.87,9.29V4.05h51.85V9.29H428.78V25.73h13.56V31.2H428.78V56.64h-5.7V31.2H405.23q.72,17.6-15,26.15c-.48-.47-1.19-1.27-2.14-2.38s-1.67-1.9-2.14-2.38q14-6.89,13.55-21.39H385V25.73h14.5V9.29Zm17.36,0V25.73h17.85V9.29Z"/><path class="cls-1" d="M465.18,57.09q-1.19-1.43-4.28-4.52a30.16,30.16,0,0,0,5-11.41q1.2-5.46,1.19-16.88V6.43h22.11L487.29.72,493.71,0A4,4,0,0,0,494,1c.63,2.37,1.19,4.2,1.66,5.47h20V25H472.79Q473.27,45.68,465.18,57.09Zm7.61-45.67V20h37.09V11.42Zm3.79,45.64V32.84h38.27V57.06h-5.47V53.31H482v3.75ZM482,37.6V49h27.34V37.6Z"/><path class="cls-1" d="M539.61,44.11l3.86.93a37.72,37.72,0,0,0,8.74,1.29c2.86,0,4.86-.72,6.08-2.08s1.72-3.58,1.72-6.8V4h6.65V37c0,5.37-1.21,8.88-3.72,11.45-2.36,2.36-5.8,3.73-10.23,3.73A30.18,30.18,0,0,1,538.17,48Z"/><path class="cls-1" d="M593,4h6.66V45.9h23.19v5.51H593Z"/><path class="cls-1" d="M667.78,34.73c-.36-.64-.58-.72-1.36-.72H653v17.4H646.3V4h17.18c6.94,0,11.38,1.29,14.53,4.44a14.36,14.36,0,0,1,3.87,10.23,16.61,16.61,0,0,1-8.16,14.32l10.95,18.47h-6.23a1.43,1.43,0,0,1-1.5-.79ZM653,28.57h15.68a4.68,4.68,0,0,0,3.79-1.5c1.65-1.79,2.72-5.37,2.72-8.16a9.6,9.6,0,0,0-2.29-6.8c-1.86-1.86-4.58-2.65-9-2.65H653Z"/><path class="cls-1" d="M744.91,44.54a45.75,45.75,0,0,0,11,1.71c6.87,0,10.74-3,10.74-8.23,0-4.15-2.15-6-8.73-8.3l-5.52-1.93c-8.23-2.87-13-6.09-13-12.75,0-7.73,7.16-11.81,16.75-11.81a41.18,41.18,0,0,1,14.6,2.94l-1.07,4.22-4.3-.57a75.38,75.38,0,0,0-9.16-.72c-6.87,0-10.67,1.58-10.67,5.73,0,3.36,2.37,5,8.81,7.3l5.3,1.86C768.17,27,773,30.22,773,38c0,8.52-6.66,14.18-17.11,14.18a37.1,37.1,0,0,1-17.25-4.73l1.65-4Z"/><path class="cls-1" d="M804,51.41h-6.66V4h17.32c6.16,0,11,1.15,14.32,4.37,2.43,2.36,3.94,6.15,3.94,10.81,0,5.15-1.65,9.59-4.65,12.52-2.37,2.29-4.94,3.44-10,3.44H804Zm0-21.76h15.75c2,0,3-.5,3.86-1.51,1.58-1.86,2.58-5.44,2.58-8.94,0-3.22-.79-5.52-2.22-7-1.93-2-5.15-2.72-9.45-2.72H804Z"/><path class="cls-1" d="M882.67,40.24H858.91l-4,10.45c-.22.58-.43.72-1.15.72h-5.87L866.92,4h6.52a1,1,0,0,1,1.21.79L894.2,51.41h-6.09a1,1,0,0,1-1.14-.72ZM860.91,35h19.61l-3.93-9.88c-3.15-7.88-5.09-12.67-6-15.32h-.07c-.86,2.43-2.79,7.59-5.79,15.32Z"/><path class="cls-1" d="M955,42.89a28.7,28.7,0,0,1-20.55,9.24c-13.17,0-22.55-10-22.55-24.49,0-13.31,9.17-24.41,22.77-24.41,9,0,16,5.3,19.25,13.18l-4.44,2.64L945,14.54c-3.36-3.36-6.22-5-10.73-5-9.81,0-15.46,7.52-15.46,18.18,0,11.39,5.94,18.12,16.53,18.12a24.69,24.69,0,0,0,10.88-3.08l6.23-3.22Z"/><path class="cls-1" d="M1009.84,4V9.46H985.29V24.14h22v5.44h-22V45.9h25.34v5.51h-32V4Z"/><path class="cls-1" d="M1038.74,57.09V25.7Q1035.89,30,1033,34c-.32-1-.71-2.53-1.19-4.75a15.16,15.16,0,0,0-.47-2.14A98,98,0,0,0,1043.73.26l5.47,1.43a129.57,129.57,0,0,1-5.23,14V57.09Zm9.93-40.43V11.9h15.69V.49h5.24V11.9H1087v4.76h-14.74q5.94,15.48,17.12,24.52c-.32.64-.87,1.67-1.66,3.1a16.78,16.78,0,0,1-1.19,2.37,60.77,60.77,0,0,1-16.88-25.94V41.42h9v4.76h-9V57.12h-5.24V46.18h-9V41.42h9V20.94a67.8,67.8,0,0,1-16.64,26.66,27.33,27.33,0,0,0-2.14-3.8c-.47-.79-.79-1.35-.95-1.66a60.51,60.51,0,0,0,17.12-25.48Z"/><path class="cls-1" d="M1108.63,44.72l-.23-5.23,5.23-.71c3.64-.48,6.34-.79,8.08-1v4.75Q1115.29,43.3,1108.63,44.72Zm4.76,11.17a30.26,30.26,0,0,0-1-5h3.33a32.84,32.84,0,0,0,3.56.24c3,.15,4.6-1.11,4.76-3.81q.48-7.36.48-15.22H1110.3L1112,11h4.76l-1.19,16.17h5.94l1.43-19.23h-13.55V3.14h18.78l-1.66,24h3.09q0,5.23-.71,18.55v2.61q0,7.84-9,7.61ZM1164,23.58a44.45,44.45,0,0,1-16.17-15.93A55.32,55.32,0,0,1,1136,20.73H1159v4.75h-23.3V21a41.42,41.42,0,0,0-4.28,3.33q-1.43-2.61-2.85-5Q1141,11.7,1146,0l5.47.48-1.18,2.61a43.52,43.52,0,0,0,16.16,15.22C1165.46,20.25,1164.67,22,1164,23.58Zm-33.29,30.64V49.94h20.68q3.33-9.51,6.19-20.69l4.75,1.43q-.94,3.09-3.09,9.51-1.9,6.42-3.09,9.75h8.56v4.28Zm6.18-7.36q-2.15-7.84-4.52-15.45l4.52-1.19c.48,1.74.63,2.38.48,1.9q2.85,8.81,4,13.55Zm10-2.61q-1.44-7.38-3.09-14.51l4.27-.95q1.9,7.14,3.33,14.51Z"/><path class="cls-1" d="M1187.35,55.16,1185,49.45q2.13-2.37,6.42-6.66,2.61-2.37,4.51-2.37a2.18,2.18,0,0,1,.95.23h.72a173.12,173.12,0,0,0,32.33-24.49h-40.42V10.93h23.3q-.94-2.37-3.09-7.13a15.52,15.52,0,0,0-1.19-2.38L1214.7.23q1.89,4.05,4.51,10.23l-1.66.47h20v5.71a170.84,170.84,0,0,1-35.42,27.82q4.28,5,13.31,5.23,8.56.24,27.58-.24a21.63,21.63,0,0,0-1.66,5.47h-16.17q-6.18-.24-10.94-.48-11.17,0-17.12-7.13a1.73,1.73,0,0,0-2.38,0A92.59,92.59,0,0,0,1187.35,55.16Z"/><path class="cls-1" d="M1263.22,14V9h10.22c-.79-2.69-1.66-5.31-2.61-7.84L1276.3,0q.71,2.61,2.85,9h6.66v5H1273l-.24,8.09h11.41q0,12.84-.71,25.68,0,7.61-6.89,7.61h-5.24l-1.18-5h4.75c2.7.16,4-1.1,3.8-3.8q.48-12.36.48-19.5h-6.66q0,20.22-6.66,29.72l-4-3.56q6-7.61,6-27.82L1268,14Zm24.49,7.12q-2.61-2.61-3.8-3.57A50,50,0,0,0,1294.37,0l5.47.48c-.32.79-.8,2-1.43,3.56-.48,1.11-.79,1.9-1,2.38h21.4v4.52h-23.78A72.75,72.75,0,0,1,1287.71,21.16ZM1315.8,55q-13.32-10.47-15.22-31.39c-1.9.16-3.81.4-5.71.71v25a83.32,83.32,0,0,1,9.27-3.8v2.37a19.26,19.26,0,0,1,.24,2.38,67.52,67.52,0,0,0-10,4.28,9.73,9.73,0,0,1-1.19.48,11.28,11.28,0,0,0-2.38,1.42l-3.09-4.28a4.84,4.84,0,0,0,1.9-4.51V19.76A180.48,180.48,0,0,0,1315.32,16l1.9,5a118.63,118.63,0,0,1-11.89,1.9,69.63,69.63,0,0,0,1.91,10,103.23,103.23,0,0,0,9.27-5.23l2.61,4.28q-5,2.86-10.22,5.47a27.6,27.6,0,0,0,11.18,13.08,21.26,21.26,0,0,1-2.14,2.38Z"/><path class="cls-1" d="M1356.21,5.49l-1.43,34.95h-5L1348.6,5.49ZM1355.73,54h-6.9V47.1h6.9Z"/><path class="cls-1" d="M1382.13,60.51a1.64,1.64,0,0,1-1.16-2.8l24.27-24.25a1.65,1.65,0,0,0,0-2.31L1381,6.87a1.65,1.65,0,1,1,2.32-2.36l24.25,24.32a4.91,4.91,0,0,1,0,6.93l-24.25,24.32a1.66,1.66,0,0,1-1.18.43Z"/><path class="cls-1" d="M1400.62,60.51a1.64,1.64,0,0,1-1.16-2.8l24.27-24.25a1.65,1.65,0,0,0,0-2.31L1399.48,6.87a1.65,1.65,0,1,1,2.32-2.36l24.25,24.32a4.91,4.91,0,0,1,0,6.93L1401.8,60.08a1.66,1.66,0,0,1-1.18.43Z"/></g></g></svg>