<?xml version="1.0" encoding="UTF-8" standalone="no"?>
<svg width="23px" height="23px" viewBox="0 0 23 23" version="1.1" xmlns="http://www.w3.org/2000/svg" xmlns:xlink="http://www.w3.org/1999/xlink">
    <!-- Generator: Sketch 50.2 (55047) - http://www.bohemiancoding.com/sketch -->
    <title>搜索 copy</title>
    <desc>Created with Sketch.</desc>
    <defs></defs>
    <g id="官网" stroke="none" stroke-width="1" fill="none" fill-rule="evenodd">
        <g id="搜索-copy" fill="#FFFFFF" fill-rule="nonzero">
            <path d="M22.7790481,21.6346018 L17.2249205,16.0773961 C17.1904111,16.0405319 17.1507323,16.0088763 17.1071266,15.9834205 L16.9422151,15.8655918 L17.060009,15.7244847 C18.4717021,14.0060338 19.2452393,11.8517765 19.2492524,9.62756587 C19.2492524,4.3071672 14.9187452,9.56923951e-05 9.62462618,9.56923951e-05 C4.30551187,-0.0234700678 0,4.30860413 0,9.60572444 C0,14.9028448 4.33050717,19.2331946 9.62606269,19.2331946 L9.64962149,19.2331946 C11.8733828,19.2296549 14.0273095,18.4559538 15.7453138,17.0435918 L15.8866665,16.9260504 L16.0041732,17.0907233 C16.0280193,17.1378548 16.0748495,17.1614205 16.0984083,17.208552 L21.6493756,22.7646082 C21.7987516,22.9152602 22.0020896,23 22.2142118,23 C22.4263341,23 22.629672,22.9152602 22.7790481,22.7646082 C23.0617535,22.4585409 23.0853123,21.9403818 22.7790481,21.6346018 Z M9.62261507,17.6321607 C5.19816006,17.6321607 1.59711335,14.0300499 1.59711333,9.60428751 C1.59711331,5.1785251 5.19787275,1.57612692 9.62261507,1.57612692 C14.0473574,1.57612692 17.6484041,5.17795031 17.6484041,9.60428751 C17.6484041,14.0306247 14.0473574,17.6321607 9.62261507,17.6321607 Z" id="Shape"></path>
        </g>
    </g>
</svg>