<?xml version="1.0" encoding="UTF-8" standalone="no"?>
<svg width="34px" height="34px" viewBox="0 0 34 34" version="1.1" xmlns="http://www.w3.org/2000/svg" xmlns:xlink="http://www.w3.org/1999/xlink">
    <!-- Generator: Sketch 50.2 (55047) - http://www.bohemiancoding.com/sketch -->
    <title>搜索</title>
    <desc>Created with Sketch.</desc>
    <defs></defs>
    <g id="官网" stroke="none" stroke-width="1" fill="none" fill-rule="evenodd">
        <g id="搜索" fill="#FFFFFF" fill-rule="nonzero">
            <path d="M33.6733754,31.9815853 L25.462926,23.7665856 C25.411912,23.7120906 25.3532565,23.6652954 25.2887959,23.6276651 L25.0450136,23.4534835 L25.2191438,23.2448904 C27.3059944,20.7045716 28.4494842,17.5200174 28.4554165,14.2320539 C28.4554165,6.36711673 22.0537972,0.000141458323 14.2277083,0.000141458323 C6.36466972,-0.0346948829 0,6.36924089 0,14.1997666 C0,22.0302922 6.4016193,28.431679 14.2298318,28.431679 L14.2646579,28.431679 C17.5519572,28.4264464 20.7360228,27.2827143 23.2756813,25.1948748 L23.4846375,25.021118 L23.658343,25.2645475 C23.6935937,25.3342201 23.762821,25.3690564 23.7976471,25.4387291 L32.0034248,33.6520295 C32.2242415,33.8747325 32.5248281,34 32.8384001,34 C33.1519721,34 33.4525587,33.8747325 33.6733754,33.6520295 C34.0912879,33.1995821 34.1261139,32.4336078 33.6733754,31.9815853 Z M14.2247353,26.0649332 C7.68423661,26.0649332 2.36095017,20.7400738 2.36095014,14.1976424 C2.3609501,7.65521102 7.68381189,2.32992675 14.2247353,2.32992675 C20.7656588,2.32992675 26.0889452,7.65436133 26.0889452,14.1976424 C26.0889452,20.7409235 20.7656588,26.0649332 14.2247353,26.0649332 Z" id="Shape"></path>
            <path d="M13.841083,5 C8.97347505,5 5,8.9737349 5,13.841166 C5.00001128,14.4811757 5.51886363,15 6.15889653,15 C6.79892943,15 7.31778178,14.4811757 7.31779306,13.841166 C7.31779306,10.2647642 10.2318095,7.31770885 13.841083,7.31770885 C14.2551218,7.31771615 14.6377124,7.09684134 14.8447339,6.73828753 C15.0517554,6.37973373 15.0517554,5.93797512 14.8447339,5.57942132 C14.6377124,5.22086751 14.2551218,4.9999927 13.841083,5 Z" id="Shape"></path>
        </g>
    </g>
</svg>